<svg xmlns="http://www.w3.org/2000/svg" xmlns:xlink="http://www.w3.org/1999/xlink" version="1.1" style="enable-background:new 0 0 688.449 688.449;" xml:space="preserve" width="512" height="512"><rect id="backgroundrect" width="100%" height="100%" x="0" y="0" fill="none" stroke="none" class="" style=""/>

















<g class="currentLayer" style=""><title>Layer 1</title>
	<path style="" d="M25.435,139.2500009765625 c0,-2.75 2.25,-5 5,-5 h144.287 c2.75,0 5,2.25 5,5 l6.175,181.083 l-6.175,179.184 H25.435 V139.2500009765625 z" id="svg_2" class="" fill-opacity="1" fill="#2b4d66"/>
	<path style="" d="M174.722,134.2500009765625 h-40 c2.75,0 5,2.25 5,5 v360.268 h40 V139.2500009765625 C179.722,136.5000009765625 177.472,134.2500009765625 174.722,134.2500009765625 z" id="svg_3" class="" fill-opacity="1" fill="#254054"/>
	<path style="fill:#857E87;" d="M404.622,112.25000097656249 v-64.567 c0,-4.142 3.357,-7.5 7.5,-7.5 c4.142,0 7.5,3.358 7.5,7.5 v64.567 H404.622 z" id="svg_4" class=""/><path style="" d="M404.622,112.25000097656249 v-64.567 c0,-4.142 3.357,-7.5 7.5,-7.5 c4.142,0 7.5,3.358 7.5,7.5 v64.567 H404.622 z" class="" id="svg_53" fill-opacity="1" fill="#2b4d66"/>
	<path style="fill:#857E87;" d="M434.34,151.2500009765625 h-44.436 v-35.723 c0,-2.75 2.25,-5 5,-5 h34.436 c2.75,0 5,2.25 5,5 V151.2500009765625 z" id="svg_5" class=""/><path style="" d="M434.34,151.2500009765625 h-44.436 v-35.723 c0,-2.75 2.25,-5 5,-5 h34.436 c2.75,0 5,2.25 5,5 V151.2500009765625 z" class="" id="svg_1" fill-opacity="1" fill="#2b4d66"/>
	<path style="fill:#DBEAFF;" d="M456.355,190.2500009765625 h-88.999 v-35.366 c0,-2.75 2.25,-5 5,-5 h78.999 c2.75,0 5,2.25 5,5 V190.2500009765625 z" id="svg_6" class=""/>
	<path style="fill:#C3DDFF;" d="M451.355,149.8850009765625 h-30 c2.75,0 5,2.25 5,5 v35.366 h30 v-35.366 C456.355,152.1350009765625 454.105,149.8850009765625 451.355,149.8850009765625 z" id="svg_7" class=""/>
	<path style="fill:#F0EEF0;" d="M489,500.7480009765625 H334.232 L330,342.2500009765625 l4.227,-148.801 c0,-2.75 2.25,-5 5,-5 H484 c2.75,0 5,2.25 5,5 V500.7480009765625 z" id="svg_8" class=""/>
	<path style="fill:#DFDDE0;" d="M484,188.45000097656248 h-40 c2.75,0 5,2.25 5,5 v307.298 h40 V193.45000097656248 C489,190.70000097656248 486.75,188.45000097656248 484,188.45000097656248 z" id="svg_9" class=""/>
	<path style="" d="M334.232,500.7480009765625 h-154.5 l-0.009000000000000003,-453.887 c0,-2.75 2.25,-5 5,-5 h144.501 c2.75,0 5,2.25 5,5 L334.232,500.7480009765625 z" id="svg_10" class="" fill-opacity="1" fill="#c6ebff"/>
	<path style="" d="M334.225,46.86100097656251 c0,-2.75 -2.25,-5 -5,-5 h-40 c2.75,0 5,2.25 5,5 l0.008000000000000002,453.887 h40 L334.225,46.86100097656251 z" id="svg_11" class="" fill-opacity="1" fill="#afe3ff"/>
	<path style="" d="M301.739,44.25000097656249 h-89.53 v-35.5 c0,-2.75 2.25,-5 5,-5 h79.53 c2.75,0 5,2.25 5,5 V44.25000097656249 z" id="svg_12" class="" fill-opacity="1" fill="#2b4d66"/>
	<path style="fill:#8BB3EA;" d="M334.188,89.23200097656249 H179.709 v-42.372 c0,-2.75 2.25,-5 5,-5 h144.479 c2.75,0 5,2.25 5,5 V89.23200097656249 z" id="svg_13" class=""/>
	<path style="fill:#739AD6;" d="M329.188,41.86100097656251 h-40 c2.75,0 5,2.25 5,5 v42.372 h40 v-42.372 C334.188,44.11100097656251 331.938,41.86100097656251 329.188,41.86100097656251 z" id="svg_14" class=""/>
	<path style="" d="M386.215,500.7090009765625 v-78.954 c0,-2.75 2.25,-5 5,-5 h41.281 c2.75,0 5,2.25 5,5 v78.954 H386.215 z" id="svg_15" class="" fill-opacity="1" fill="#2b4d66"/>
	<path style="fill:#C3DDFF;" d="M88.595,324.7140009765625 c0,2.75 -2.25,5 -5,5 H62.852 c-2.75,0 -5,-2.25 -5,-5 V179.92100097656248 c0,-2.75 2.25,-5 5,-5 h20.743 c2.75,0 5,2.25 5,5 V324.7140009765625 z" id="svg_16" class=""/>
	<path style="fill:#C3DDFF;" d="M149.352,456.2510009765625 c0,2.75 -2.25,5 -5,5 h-20.954 c-2.75,0 -5,-2.25 -5,-5 V311.4590009765625 c0,-2.75 2.25,-5 5,-5 h20.954 c2.75,0 5,2.25 5,5 V456.2510009765625 z" id="svg_17" class=""/>
	<path style="fill:#C3DDFF;" d="M149.352,262.3300009765625 c0,2.75 -2.25,5 -5,5 h-20.954 c-2.75,0 -5,-2.25 -5,-5 v-20.07 c0,-2.75 2.25,-5 5,-5 h20.954 c2.75,0 5,2.25 5,5 V262.3300009765625 z" id="svg_18" class=""/>
	<path style="fill:#C3DDFF;" d="M88.595,393.8950009765625 c0,2.75 -2.25,5 -5,5 H62.852 c-2.75,0 -5,-2.25 -5,-5 v-19.973 c0,-2.75 2.25,-5 5,-5 h20.743 c2.75,0 5,2.25 5,5 V393.8950009765625 z" id="svg_19" class=""/>
	<path style="" d="M504.5,508.25000097656255 H7.5 c-4.143,0 -7.5,-3.358 -7.5,-7.5 s3.357,-7.5 7.5,-7.5 h497 c4.143,0 7.5,3.358 7.5,7.5 S508.643,508.25000097656255 504.5,508.25000097656255 z" id="svg_20" class="" fill-opacity="1" fill="#ff623c"/>
	<g id="svg_21" class="">
		<path style="fill:#8BB3EA;" d="M300.339,157.7500009765625 h-86.729 c-4.143,0 -7.5,-3.358 -7.5,-7.5 s3.357,-7.5 7.5,-7.5 h86.729 c4.143,0 7.5,3.358 7.5,7.5 S304.481,157.7500009765625 300.339,157.7500009765625 z" id="svg_22"/>
	</g>
	<g id="svg_23" class="">
		<path style="fill:#8BB3EA;" d="M300.339,230.68300097656248 h-86.729 c-4.143,0 -7.5,-3.358 -7.5,-7.5 s3.357,-7.5 7.5,-7.5 h86.729 c4.143,0 7.5,3.358 7.5,7.5 S304.481,230.68300097656248 300.339,230.68300097656248 z" id="svg_24"/>
	</g>
	<g id="svg_25" class="">
		<path style="fill:#8BB3EA;" d="M300.339,303.5200009765625 h-86.729 c-4.143,0 -7.5,-3.358 -7.5,-7.5 s3.357,-7.5 7.5,-7.5 h86.729 c4.143,0 7.5,3.358 7.5,7.5 S304.481,303.5200009765625 300.339,303.5200009765625 z" id="svg_26"/>
	</g>
	<g id="svg_27" class="">
		<path style="fill:#8BB3EA;" d="M300.339,376.3510009765625 h-86.729 c-4.143,0 -7.5,-3.358 -7.5,-7.5 s3.357,-7.5 7.5,-7.5 h86.729 c4.143,0 7.5,3.358 7.5,7.5 S304.481,376.3510009765625 300.339,376.3510009765625 z" id="svg_28"/>
	</g>
	<g id="svg_29" class="">
		<path style="fill:#8BB3EA;" d="M300.339,449.18300097656254 h-86.729 c-4.143,0 -7.5,-3.358 -7.5,-7.5 s3.357,-7.5 7.5,-7.5 h86.729 c4.143,0 7.5,3.358 7.5,7.5 S304.481,449.18300097656254 300.339,449.18300097656254 z" id="svg_30"/>
	</g>
	<g id="svg_31" class="" fill-opacity="1" fill="#004f7a">
		<g id="svg_32" fill="#004f7a">
			<path style="" d="M372.855,263.7520009765625 c-4.143,0 -7.5,-3.358 -7.5,-7.5 v-25.002 c0,-4.142 3.357,-7.5 7.5,-7.5 s7.5,3.358 7.5,7.5 v25.002 C380.355,260.3950009765625 376.998,263.7520009765625 372.855,263.7520009765625 z" id="svg_33" fill="#004f7a"/>
		</g>
		<g id="svg_34" fill="#004f7a">
			<path style="" d="M411.855,263.7520009765625 c-4.143,0 -7.5,-3.358 -7.5,-7.5 v-25.002 c0,-4.142 3.357,-7.5 7.5,-7.5 s7.5,3.358 7.5,7.5 v25.002 C419.355,260.3950009765625 415.998,263.7520009765625 411.855,263.7520009765625 z" id="svg_35" fill="#004f7a"/>
		</g>
		<g id="svg_36" fill="#004f7a">
			<path style="" d="M372.855,323.6430009765625 c-4.143,0 -7.5,-3.358 -7.5,-7.5 v-24.953 c0,-4.142 3.357,-7.5 7.5,-7.5 s7.5,3.358 7.5,7.5 v24.953 C380.355,320.2850009765625 376.998,323.6430009765625 372.855,323.6430009765625 z" id="svg_37" fill="#004f7a"/>
		</g>
		<g id="svg_38" fill="#004f7a">
			<path style="" d="M411.855,323.6430009765625 c-4.143,0 -7.5,-3.358 -7.5,-7.5 v-24.953 c0,-4.142 3.357,-7.5 7.5,-7.5 s7.5,3.358 7.5,7.5 v24.953 C419.355,320.2850009765625 415.998,323.6430009765625 411.855,323.6430009765625 z" id="svg_39" fill="#004f7a"/>
		</g>
		<g id="svg_40" fill="#004f7a">
			<path style="" d="M372.855,383.5610009765625 c-4.143,0 -7.5,-3.358 -7.5,-7.5 V351.0860009765625 c0,-4.142 3.357,-7.5 7.5,-7.5 s7.5,3.358 7.5,7.5 v24.975 C380.355,380.2030009765625 376.998,383.5610009765625 372.855,383.5610009765625 z" id="svg_41" fill="#004f7a"/>
		</g>
		<g id="svg_42" fill="#004f7a">
			<path style="" d="M411.855,383.5610009765625 c-4.143,0 -7.5,-3.358 -7.5,-7.5 V351.0860009765625 c0,-4.142 3.357,-7.5 7.5,-7.5 s7.5,3.358 7.5,7.5 v24.975 C419.355,380.2030009765625 415.998,383.5610009765625 411.855,383.5610009765625 z" id="svg_43" fill="#004f7a"/>
		</g>
		<g id="svg_44" fill="#004f7a">
			<path style="" d="M450.855,263.7520009765625 c-4.143,0 -7.5,-3.358 -7.5,-7.5 v-25.002 c0,-4.142 3.357,-7.5 7.5,-7.5 s7.5,3.358 7.5,7.5 v25.002 C458.355,260.3950009765625 454.998,263.7520009765625 450.855,263.7520009765625 z" id="svg_45" fill="#004f7a"/>
		</g>
		<g id="svg_46" fill="#004f7a">
			<path style="" d="M450.855,323.6430009765625 c-4.143,0 -7.5,-3.358 -7.5,-7.5 v-24.953 c0,-4.142 3.357,-7.5 7.5,-7.5 s7.5,3.358 7.5,7.5 v24.953 C458.355,320.2850009765625 454.998,323.6430009765625 450.855,323.6430009765625 z" id="svg_47" fill="#004f7a"/>
		</g>
		<g id="svg_48" fill="#004f7a">
			<path style="" d="M450.855,383.5610009765625 c-4.143,0 -7.5,-3.358 -7.5,-7.5 V351.0860009765625 c0,-4.142 3.357,-7.5 7.5,-7.5 s7.5,3.358 7.5,7.5 v24.975 C458.355,380.2030009765625 454.998,383.5610009765625 450.855,383.5610009765625 z" id="svg_49" fill="#004f7a"/>
		</g>
	</g>
<g id="svg_50" class="">
	<g id="svg_51">
		<path style="fill:#D3D3D6;" d="M687,95.974c1.93,0,1.934-3,0-3C685.07,92.974,685.066,95.974,687,95.974L687,95.974z" id="svg_52"/>
	</g>
</g></g></svg>