<svg xmlns="http://www.w3.org/2000/svg" xmlns:xlink="http://www.w3.org/1999/xlink" version="1.1" style="enable-background:new 0 0 512.001 512.001;" xml:space="preserve" width="512.0009765625" height="512.0009765625"><rect id="backgroundrect" width="100%" height="100%" x="0" y="0" fill="none" stroke="none"/>


























<g class="currentLayer" style=""><title>Layer 1</title><path style="fill:#FFBD42;" d="M33.052,356.136l-0.822,0.822l0,0L0.613,485.716c-1.77,7.209,0.355,14.819,5.604,20.068  l88.242-88.242L33.052,356.136z" id="svg_1"/><path style="" d="M502.599,86.817L425.182,9.402c-12.536-12.536-32.86-12.536-45.396,0L311.18,78.008l-10.078,10.078  L32.23,356.957l0,0L0.613,485.716c-1.77,7.209,0.355,14.819,5.604,20.068c5.249,5.249,12.858,7.374,20.068,5.604l128.759-31.617l0,0  l268.873-268.873l10.078-10.078l68.606-68.606C515.135,119.677,515.135,99.353,502.599,86.817z" id="svg_2" class="" fill-opacity="1" fill="#98d7f9"/><path style="fill:#007066;" d="M425.182,9.402c-12.536-12.536-32.86-12.536-45.396,0L311.18,78.008l-10.078,10.078L32.23,356.957  l0,0L0.613,485.716c-1.77,7.209,0.355,14.819,5.604,20.068L463.891,48.11L425.182,9.402z" id="svg_3"/><path style="" d="M425.182,9.402c-12.536-12.536-32.86-12.536-45.396,0L311.18,78.008l-10.078,10.078L32.23,356.957  l0,0L0.613,485.716c-1.77,7.209,0.355,14.819,5.604,20.068L463.891,48.11L425.182,9.402z" id="svg_4" class="" fill-opacity="1" fill="#adddf7"/><path style="" d="M466.265,168.547l36.334-36.334c12.536-12.536,12.536-32.86,0-45.396L425.182,9.402  c-12.536-12.536-32.86-12.536-45.396,0l-36.334,36.334L466.265,168.547z" id="svg_5" class="" fill-opacity="1" fill="#ff623c"/><path style="" d="M33.052,356.136l-0.822,0.822l0,0L0.613,485.716c-1.77,7.209,0.355,14.819,5.604,20.068  c5.249,5.249,12.858,7.374,20.068,5.604l128.759-31.617l0,0l0.822-0.822L33.052,356.136z" id="svg_7" class="" fill-opacity="1" fill="#ff966d"/><rect x="297.7130126953125" y="90.41500091552734" transform="matrix(-0.7071,-0.7071,0.7071,-0.7071,566.3668,489.469) " style="" width="173.68499755859375" height="74.04199981689453" id="svg_8" class="" fill-opacity="1" fill="#ff966d"/><path style="fill:#2D2B27;" d="M11.138,442.855l-10.524,42.86c-1.77,7.209,0.355,14.819,5.604,20.068  c5.249,5.249,12.858,7.374,20.068,5.604l42.86-10.525L11.138,442.855z" id="svg_10"/><path style="fill:#403E3B;" d="M11.138,442.855l-10.524,42.86c-1.77,7.209,0.355,14.819,5.604,20.068l33.925-33.925L11.138,442.855z  " id="svg_11"/><g id="svg_12">
</g><g id="svg_13">
</g><g id="svg_14">
</g><g id="svg_15">
</g><g id="svg_16">
</g><g id="svg_17">
</g><g id="svg_18">
</g><g id="svg_19">
</g><g id="svg_20">
</g><g id="svg_21">
</g><g id="svg_22">
</g><g id="svg_23">
</g><g id="svg_24">
</g><g id="svg_25">
</g><g id="svg_26">
</g></g></svg>