<svg xmlns="http://www.w3.org/2000/svg" xmlns:xlink="http://www.w3.org/1999/xlink" version="1.1" style="enable-background:new 0 0 512 512;" xml:space="preserve" width="512" height="512"><rect id="backgroundrect" width="100%" height="100%" x="0" y="0" fill="none" stroke="none" class="selected" style=""/>
















<g class="currentLayer" style=""><title>Layer 1</title><g id="svg_1" class="" fill-opacity="1" fill="#ffffff">
	<g id="svg_2" fill="#ffffff">
		<path d="M467,80.609H45c-24.813,0-45,20.187-45,45v260.782c0,24.813,20.187,45,45,45h422c24.813,0,45-20.187,45-45V125.609    C512,100.796,491.813,80.609,467,80.609z M461.127,110.609l-6.006,5.001L273.854,266.551c-10.346,8.614-25.364,8.614-35.708,0    L56.879,115.61l-6.006-5.001H461.127z M30,132.267L177.692,255.25L30,353.543V132.267z M467,401.391H45    c-7.248,0-13.31-5.168-14.699-12.011l171.445-114.101l17.204,14.326c10.734,8.938,23.893,13.407,37.051,13.407    c13.158,0,26.316-4.469,37.051-13.407l17.204-14.326l171.444,114.1C480.31,396.224,474.248,401.391,467,401.391z M482,353.543    l-147.692-98.292L482,132.267V353.543z" id="svg_3" fill="#ffffff"/>
	</g>
</g><g id="svg_4">
</g><g id="svg_5">
</g><g id="svg_6">
</g><g id="svg_7">
</g><g id="svg_8">
</g><g id="svg_9">
</g><g id="svg_10">
</g><g id="svg_11">
</g><g id="svg_12">
</g><g id="svg_13">
</g><g id="svg_14">
</g><g id="svg_15">
</g><g id="svg_16">
</g><g id="svg_17">
</g><g id="svg_18">
</g></g></svg>