<svg xmlns="http://www.w3.org/2000/svg" xmlns:xlink="http://www.w3.org/1999/xlink" version="1.1" style="enable-background:new 0 0 512 512;" xml:space="preserve" width="512" height="512"><rect id="backgroundrect" width="100%" height="100%" x="0" y="0" fill="none" stroke="none"/>
















<g class="currentLayer" style=""><title>Layer 1</title><g id="svg_1" class="selected" fill-opacity="1" fill="#203a4c">
	<g id="svg_2" fill="#203a4c">
		<path d="M333.187,237.405c32.761-23.893,54.095-62.561,54.095-106.123C387.282,58.893,328.389,0,256,0    S124.718,58.893,124.718,131.282c0,43.562,21.333,82.23,54.095,106.123C97.373,268.57,39.385,347.531,39.385,439.795    c0,39.814,32.391,72.205,72.205,72.205H400.41c39.814,0,72.205-32.391,72.205-72.205    C472.615,347.531,414.627,268.57,333.187,237.405z M164.103,131.282c0-50.672,41.225-91.897,91.897-91.897    s91.897,41.225,91.897,91.897S306.672,223.18,256,223.18S164.103,181.954,164.103,131.282z M400.41,472.615H111.59    c-18.097,0-32.82-14.723-32.82-32.821c0-97.726,79.504-177.231,177.231-177.231s177.231,79.504,177.231,177.231    C433.231,457.892,418.508,472.615,400.41,472.615z" id="svg_3" fill="#203a4c"/>
	</g>
</g><g id="svg_4">
</g><g id="svg_5">
</g><g id="svg_6">
</g><g id="svg_7">
</g><g id="svg_8">
</g><g id="svg_9">
</g><g id="svg_10">
</g><g id="svg_11">
</g><g id="svg_12">
</g><g id="svg_13">
</g><g id="svg_14">
</g><g id="svg_15">
</g><g id="svg_16">
</g><g id="svg_17">
</g><g id="svg_18">
</g></g></svg>