<svg xmlns="http://www.w3.org/2000/svg" xmlns:xlink="http://www.w3.org/1999/xlink" version="1.1" style="enable-background:new 0 0 480 480;" xml:space="preserve" width="480" height="480"><rect id="backgroundrect" width="100%" height="100%" x="0" y="0" fill="none" stroke="none" class="" style=""/>


















<g class="currentLayer" style=""><title>Layer 1</title><path fill="#ff623c" fill-opacity="1" stroke="none" stroke-opacity="1" stroke-width="2" stroke-dasharray="none" stroke-linejoin="miter" stroke-linecap="butt" stroke-dashoffset="" fill-rule="nonzero" opacity="1" marker-start="" marker-mid="" marker-end="" id="svg_25" d="M 236.9999934732914 419.79999713897706 L 250 420 L 255 434 L 252 442 L 241 442 L 229 438 L 236.9999934732914 419.79999713897706 z" style="color: rgb(255, 98, 60);" class=""/><g id="svg_1" class="" fill-opacity="1" fill="#203a4c" stroke-opacity="1" stroke="#203a4c" stroke-width="2">
	<g id="svg_2" fill="#203a4c" stroke="#203a4c" stroke-width="2">
		<path d="M350.84210443496704,0 H137.15789461135864 c-21.06315782546997,0.026000000000000075 -38.133091979861256,17.92 -38.15789461135864,40 v400 c0.02480263149738315,22.08 17.094736785888674,39.974 38.15789461135864,40 h213.6842098236084 c21.06315782546997,-0.026000000000000075 38.133091979861256,-17.92 38.15789461135864,-40 V40 C388.9751964148283,17.92 371.905262260437,0.026000000000000075 350.84210443496704,0 zM373.7368412017822,440 c0,13.255 -10.250164439976217,24 -22.894736766815186,24 H137.15789461135864 c-12.64457232683897,0 -22.894736766815186,-10.745000000000001 -22.894736766815186,-24 v-40 h259.47368335723877 V440 zM373.7368412017822,384 H114.26315784454346 V64 h259.47368335723877 V384 zM373.7368412017822,48 H114.26315784454346 v-8 c0,-13.255 10.250164439976217,-24 22.894736766815186,-24 h213.6842098236084 c12.64457232683897,0 22.894736766815186,10.745000000000001 22.894736766815186,24 V48 z" id="svg_3" fill="#203a4c" stroke="#203a4c" stroke-width="2"/>
	</g>
</g><g id="svg_4" class="" fill-opacity="1" fill="#203a4c" stroke="none" stroke-width="2">
	<g id="svg_5" fill="#203a4c" stroke="none" stroke-width="2">
		<path d="M245,408 c-13.255,0 -24,10.745000000000001 -24,24 s10.745000000000001,24 24,24 s24,-10.745000000000001 24,-24 S258.255,408 245,408 zM245,440 c-4.418,0 -8,-3.582 -8,-8 s3.582,-8 8,-8 s8,3.582 8,8 S249.418,440 245,440 z" id="svg_6" fill="#203a4c" stroke="none" stroke-width="2"/>
	</g>
</g><g id="svg_7" class="" fill-opacity="1" fill="#203a4c" stroke-opacity="1" stroke="#203a4c" stroke-width="2">
	<g id="svg_8" fill="#203a4c" stroke="#203a4c" stroke-width="2">
		<path d="M256,24 h-16 c-4.418,0 -8,3.582 -8,8 s3.582,8 8,8 h16 c4.418,0 8,-3.582 8,-8 S260.418,24 256,24 z" id="svg_9" fill="#203a4c" stroke="#203a4c" stroke-width="2"/>
	</g>
</g><g id="svg_10" class="">
</g><g id="svg_11" class="">
</g><g id="svg_12" class="">
</g><g id="svg_13" class="">
</g><g id="svg_14" class="">
</g><g id="svg_15" class="">
</g><g id="svg_16" class="">
</g><g id="svg_17" class="">
</g><g id="svg_18" class="">
</g><g id="svg_19" class="">
</g><g id="svg_20" class="">
</g><g id="svg_21" class="">
</g><g id="svg_22" class="">
</g><g id="svg_23" class="">
</g><g id="svg_24" class="">
</g></g></svg>