<svg xmlns="http://www.w3.org/2000/svg" height="598" width="598" style=""><rect id="backgroundrect" width="100%" height="100%" x="0" y="0" fill="none" stroke="none" class="" style=""/><g class="currentLayer" style=""><title>Layer 1</title><path fill="#ff623c" fill-opacity="1" stroke="none" stroke-opacity="1" stroke-width="1" stroke-dasharray="none" stroke-linejoin="miter" stroke-linecap="butt" stroke-dashoffset="" fill-rule="nonzero" opacity="1" marker-start="" marker-mid="" marker-end="" id="svg_10" d="M260.99999,14L259,81C259.99999,82 332.99999,86 332.99999,85C332.99999,84 334.99999,14 334,13C334.99999,14 300.99999,12.8 260.99999,14z" style="color: rgb(255, 98, 60);" class=""/><path d="m300.555570602417,276.625 c35.660156,-0.03125000000000011 64.535156,-28.96875 64.5,-64.625 c-0.03125000000000011,-35.65625 -28.96875,-64.535156 -64.628906,-64.5 c-35.652344,0.03515600000000011 -64.53125,28.96875 -64.496094,64.625 c0.1132810000000028,35.625 29,64.453125 64.625,64.5 zm0,-104.125 c21.882812,0 39.625,17.738281 39.625,39.625 c0,21.882812 -17.742188,39.625 -39.625,39.625 c-21.886719,0 -39.625,-17.742188 -39.625,-39.625 c0.003906000000000164,-21.882812 17.746094,-39.621094 39.625,-39.625 zm0,0 " id="svg_1" class=""/><path d="m300.555570602417,276.625 c35.660156,-0.03125000000000011 64.535156,-28.96875 64.5,-64.625 c-0.03125000000000011,-35.65625 -28.96875,-64.535156 -64.628906,-64.5 c-35.652344,0.03515600000000011 -64.53125,28.96875 -64.496094,64.625 c0.11328100000000282,35.625 29,64.453125 64.625,64.5 zm0,-104.125 c21.882812,0 39.625,17.738281 39.625,39.625 c0,21.882812 -17.742188,39.625 -39.625,39.625 c-21.886719,0 -39.625,-17.742188 -39.625,-39.625 c0.003906000000000165,-21.882812 17.746094,-39.621094 39.625,-39.625 zm0,0 " class="" id="svg_6" fill-opacity="1" fill="#203a4c"/><path d="m213.805570602417,415.75 h173.496094 c6.902344,-0.015625000000000305 12.480468,-5.6015619999999995 12.5,-12.5 c0,-28.25 -10.246094,-54.25 -28.996094,-73.375 c-18.546875,-18.796875 -43.847656,-29.375 -70.25,-29.375 s-51.703125,10.578125 -70.25,29.375 c-18.75,19.125 -29,45.125 -29,73.375 c0.019531000000000055,6.8984380000000005 5.6015619999999995,12.484375 12.5,12.5 zm34.375,-68.375 c13.835938,-13.996094 32.695312,-21.875 52.375,-21.875 c19.675781,0 38.539062,7.878906 52.371094,21.875 c11.472656,11.835938 18.835937,27.039062 21.003906,43.375 h-146.75 c2.140625,-16.34375 9.507812,-31.5625 21,-43.375 zm0,0 " id="svg_2" class=""/><path d="m213.805570602417,415.75 h173.496094 c6.902344,-0.015625000000000305 12.480468,-5.6015619999999995 12.5,-12.5 c0,-28.25 -10.246094,-54.25 -28.996094,-73.375 c-18.546875,-18.796875 -43.847656,-29.375 -70.25,-29.375 s-51.703125,10.578125 -70.25,29.375 c-18.75,19.125 -29,45.125 -29,73.375 c0.019531000000000055,6.8984380000000005 5.6015619999999995,12.484375 12.5,12.5 zm34.375,-68.375 c13.835938,-13.996094 32.695312,-21.875 52.375,-21.875 c19.675781,0 38.539062,7.878906 52.371094,21.875 c11.472656,11.835938 18.835937,27.039062 21.003906,43.375 h-146.75 c2.140625,-16.34375 9.507812,-31.5625 21,-43.375 zm0,0 " class="" id="svg_7" fill-opacity="1" fill="#203a4c"/><path d="m463.055570602417,42.5 h-112.5 v-30 c-0.019531000000000055,-6.894531 -5.605469,-12.4804688 -12.5,-12.5 h-75 c-6.894531,0.01953120000000005 -12.480469,5.605469 -12.5,12.5 v30 h-112.5 c-34.511719,0.015625000000000305 -62.484375,27.988281 -62.5,62.5 v430 c0.015625000000000305,34.511719 27.988281,62.484375 62.5,62.5 h325 c34.511719,-0.015625000000000305 62.484375,-27.988281 62.5,-62.5 v-430 c-0.015625000000000305,-34.511719 -27.988281,-62.484375 -62.5,-62.5 zm-187.5,-17.5 h50 v50 h-50 zm225,510 c-0.05859400000000011,20.683594 -16.816406,37.441406 -37.5,37.5 h-325 c-20.683594,-0.05859400000000011 -37.441406,-16.816406 -37.5,-37.5 v-430 c0.05859400000000011,-20.683594 16.816406,-37.441406 37.5,-37.5 h112.5 v20 c0.019531000000000055,6.894531 5.605469,12.480469 12.5,12.5 h75 c6.894531,-0.019531000000000055 12.480469,-5.605469 12.5,-12.5 v-20 h112.5 c20.683594,0.05859400000000011 37.441406,16.816406 37.5,37.5 zm0,0 " id="svg_3" class="" fill-opacity="1" fill="#203a4c"/><path d="m435.805570602417,505 h-270.5 c-6.902344,0 -12.5,5.59375 -12.5,12.5 s5.597656,12.5 12.5,12.5 h270.625 c6.90625,-0.03515600000000011 12.472656,-5.660156 12.4375,-12.5625 c-0.03515600000000011,-6.90625 -5.660156,-12.472656 -12.5625,-12.4375 zm0,0 " id="svg_4" class="" fill-opacity="1" fill="#203a4c"/><path d="m227.805570602417,450 c-6.902344,0 -12.5,5.59375 -12.5,12.5 s5.597656,12.5 12.5,12.5 h145.625 c6.90625,0 12.5,-5.59375 12.5,-12.5 s-5.59375,-12.5 -12.5,-12.5 zm0,0 " id="svg_5" class="" fill-opacity="1" fill="#203a4c"/><path fill="#ff623c" fill-opacity="1" stroke="none" stroke-opacity="1" stroke-width="1" stroke-dasharray="none" stroke-linejoin="miter" stroke-linecap="butt" stroke-dashoffset="" fill-rule="nonzero" opacity="1" marker-start="" marker-mid="" marker-end="" id="svg_9" d="M 266.9999943524599 18.799996435642242 L 263 71" style="color: rgb(255, 98, 60);"/></g></svg>