<svg xmlns="http://www.w3.org/2000/svg" enable-background="new 0 0 512 512" height="512" width="512"><rect id="backgroundrect" width="100%" height="100%" x="0" y="0" fill="none" stroke="none"/><g class="currentLayer" style=""><title>Layer 1</title><path d="m502 471.097h-147.95c-5.523 0-10-4.477-10-10v-56.811c0-32.209 26.111-58.32 58.32-58.32h51.31c32.209 0 58.32 26.111 58.32 58.32v56.811c0 5.523-4.477 10-10 10z" fill="#9bddff" id="svg_8" class="" fill-opacity="1"/><path d="m512 404.286v56.811c0 5.523-4.477 10-10 10h-20.354v-66.811c0-32.201-26.118-58.319-58.319-58.319h30.354c32.209-.001 58.319 26.11 58.319 58.319z" fill="#98d7f9" id="svg_12" class="" fill-opacity="1"/><g id="svg_13" class=""><g id="svg_14"><path d="m428.025 351.11c-26.258 0-47.545-21.286-47.545-47.545v-17.163c0-26.258 21.286-47.545 47.545-47.545 26.258 0 47.545 21.286 47.545 47.545v17.163c0 26.259-21.287 47.545-47.545 47.545z" fill="#ffcec0" id="svg_15"/><path d="m475.571 286.408v17.158c0 26.258-21.287 47.545-47.545 47.545-5.251 0-10.316-.855-15.046-2.432 18.882-6.307 32.485-24.12 32.485-45.112v-17.158c0-13.122-5.318-25.015-13.924-33.621-5.158-5.158-11.479-9.127-18.561-11.492 4.73-1.577 9.795-2.432 15.046-2.432 13.122 0 25.015 5.318 33.621 13.924 8.605 8.605 13.924 20.497 13.924 33.62z" fill="#fdb0a0" id="svg_16"/></g></g><path d="m157.95 471.097h-147.95c-5.523 0-10-4.477-10-10v-56.811c0-32.209 26.111-58.32 58.32-58.32h51.31c32.209 0 58.32 26.111 58.32 58.32v56.811c0 5.523-4.477 10-10 10z" fill="#ff623c" id="svg_20" class="" fill-opacity="1"/><path d="m167.95 404.286v56.811c0 5.523-4.477 10-10 10h-20.354v-66.811c0-32.201-26.118-58.319-58.319-58.319h30.354c32.209-.001 58.319 26.11 58.319 58.319z" fill="#ff4921" id="svg_24" class="" fill-opacity="1"/><g id="svg_25" class=""><g id="svg_26"><path d="m83.975 351.11c-26.258 0-47.545-21.286-47.545-47.545v-17.163c0-26.258 21.286-47.545 47.545-47.545 26.258 0 47.545 21.286 47.545 47.545v17.163c0 26.259-21.287 47.545-47.545 47.545z" fill="#ffcec0" id="svg_27"/><path d="m131.521 286.408v17.158c0 26.258-21.287 47.545-47.545 47.545-5.251 0-10.316-.855-15.046-2.432 18.882-6.307 32.485-24.12 32.485-45.112v-17.158c0-13.122-5.318-25.015-13.924-33.621-5.158-5.158-11.479-9.127-18.561-11.492 4.73-1.577 9.795-2.432 15.046-2.432 13.122 0 25.015 5.318 33.621 13.924 8.606 8.605 13.924 20.497 13.924 33.62z" fill="#fdb0a0" id="svg_28"/></g></g><path d="m363.999 503.546h-215.998c-5.523 0-10-4.477-10-10v-92.649c0-45.259 36.69-81.949 81.949-81.949h72.1c45.259 0 81.949 36.69 81.949 81.949v92.649c0 5.523-4.477 10-10 10z" fill="#365e7d" id="svg_30" class="" fill-opacity="1"/><path d="m373.999 400.897v92.649c0 5.523-4.477 10-10 10h-32.653v-102.648c0-45.248-36.701-81.949-81.949-81.949h42.653c45.26 0 81.949 36.689 81.949 81.948z" fill="#2b4d66" id="svg_31" class="" fill-opacity="1"/><path d="m318.928,322.82083872890473 l-62.928,119.853 l-62.928,-119.854 c8.419,-2.915 17.472,-4.51 26.886,-4.51 h72.084 c9.413,0.0010000000000000002 18.467,1.596 26.886,4.511 z" fill="#fbfdff" id="svg_32" class="" fill-opacity="1"/><g id="svg_39" class="selected"><path d="m256 326.177c-36.897 0-66.809-29.911-66.809-66.808v-24.117c0-36.897 29.911-66.808 66.808-66.808 36.897 0 66.808 29.911 66.808 66.808v24.117c.001 36.897-29.91 66.808-66.807 66.808z" fill="#ffcec0" id="svg_40"/><path d="m322.811 235.252v24.112c0 36.91-29.915 66.809-66.81 66.809-5.525 0-10.911-.665-16.049-1.95 29.141-7.181 50.745-33.49 50.745-64.859v-24.112c0-18.447-7.475-35.146-19.577-47.248-8.465-8.465-19.175-14.656-31.169-17.612 5.138-1.285 10.524-1.95 16.049-1.95 18.447 0 35.146 7.475 47.248 19.562 12.088 12.102 19.563 28.8 19.563 47.248z" fill="#fdb0a0" id="svg_41"/></g><g id="svg_46" class="" fill-opacity="1" fill="#2b4d66"><path d="m248.274 503.486v-60.166c0-4.267 3.459-7.726 7.726-7.726s7.726 3.459 7.726 7.726v60.166z" fill="#2b4d66" id="svg_47"/></g><g id="XMLID_1457_" class="" fill-opacity="1" fill="#fbfdff"><path d="m285.057 466.404c-.008 0-.015 0-.022 0l-.178-.001c-4.267-.012-7.716-3.481-7.704-7.748.012-4.26 3.469-7.705 7.726-7.705h.023.178c4.267.012 7.716 3.481 7.704 7.749-.013 4.26-3.471 7.705-7.727 7.705z" fill="#fbfdff" id="svg_48"/></g></g></svg>