<svg xmlns="http://www.w3.org/2000/svg" height="512" width="512"><rect id="backgroundrect" width="100%" height="100%" x="0" y="0" fill="none" stroke="none"/><g class="currentLayer" style=""><title>Layer 1</title><g class="" fill="#ffffff" fill-opacity="1"><path d="m453.332031,448 h-394.664062 c-32.363281,0 -58.667969,-26.304688 -58.667969,-58.667969 v-266.664062 c0,-32.363281 26.304688,-58.667969 58.667969,-58.667969 h394.664062 c32.363281,0 58.667969,26.304688 58.667969,58.667969 v266.664062 c0,32.363281 -26.304688,58.667969 -58.667969,58.667969 zm-394.664062,-352 c-14.699219,0 -26.667969,11.96875 -26.667969,26.667969 v266.664062 c0,14.699219 11.96875,26.667969 26.667969,26.667969 h394.664062 c14.699219,0 26.667969,-11.96875 26.667969,-26.667969 v-266.664062 c0,-14.699219 -11.96875,-26.667969 -26.667969,-26.667969 zm0,0 " id="svg_1" class="" fill="#ffffff" fill-opacity="1"/><path d="m160,256 c-29.398438,0 -53.332031,-23.9375 -53.332031,-53.332031 c0,-29.398438 23.933593,-53.335938 53.332031,-53.335938 s53.332031,23.9375 53.332031,53.335938 c0,29.394531 -23.933593,53.332031 -53.332031,53.332031 zm0,-74.667969 c-11.753906,0 -21.332031,9.578125 -21.332031,21.335938 c0,11.753906 9.578125,21.332031 21.332031,21.332031 s21.332031,-9.578125 21.332031,-21.332031 c0,-11.757813 -9.578125,-21.335938 -21.332031,-21.335938 zm0,0 " id="svg_2" class="" fill="#ffffff" fill-opacity="1"/><path d="m240,362.667969 c-8.832031,0 -16,-7.167969 -16,-16 v-10.667969 c0,-14.699219 -11.96875,-26.667969 -26.667969,-26.667969 h-74.664062 c-14.699219,0 -26.667969,11.96875 -26.667969,26.667969 v10.667969 c0,8.832031 -7.167969,16 -16,16 s-16,-7.167969 -16,-16 v-10.667969 c0,-32.363281 26.304688,-58.667969 58.667969,-58.667969 h74.664062 c32.363281,0 58.667969,26.304688 58.667969,58.667969 v10.667969 c0,8.832031 -7.167969,16 -16,16 zm0,0 " id="svg_3" class="" fill="#ffffff" fill-opacity="1"/><path d="m432,192 h-117.332031 c-8.832031,0 -16,-7.167969 -16,-16 s7.167969,-16 16,-16 h117.332031 c8.832031,0 16,7.167969 16,16 s-7.167969,16 -16,16 zm0,0 " id="svg_4" class="" fill="#ffffff" fill-opacity="1"/><path d="m432,277.33203100000003 h-117.332031 c-8.832031,0 -16,-7.167969 -16,-16 s7.167969,-16 16,-16 h117.332031 c8.832031,0 16,7.167969 16,16 s-7.167969,16 -16,16 zm0,0 " id="svg_5" class="" fill="#ffffff" fill-opacity="1"/><path d="m432,362.667969 h-117.332031 c-8.832031,0 -16,-7.167969 -16,-16 s7.167969,-16 16,-16 h117.332031 c8.832031,0 16,7.167969 16,16 s-7.167969,16 -16,16 zm0,0 " id="svg_6" class="" fill="#ffffff" fill-opacity="1"/></g></g></svg>