<svg xmlns="http://www.w3.org/2000/svg" enable-background="new 0 0 512 512" height="512" width="512"><rect id="backgroundrect" width="100%" height="100%" x="0" y="0" fill="none" stroke="none" class="" style=""/><g class="currentLayer" style=""><title>Layer 1</title><path d="m410.8285170288086,494.1214828491211 h-309.657 c-10.035,0 -18.171,-8.135 -18.171,-18.171 v-439.902 c0,-10.035 8.135,-18.171 18.171,-18.171 h309.657 c10.035,0 18.171,8.135 18.171,18.171 v439.902 c0,10.036 -8.136,18.171 -18.171,18.171 z" fill="#c8effe" id="svg_2" class=""/><path d="m174.94051702880859,452.6644828491211 h-42.581 c-4.552,0 -8.241,-3.6900000000000004 -8.241,-8.241 v-42.581 c0,-4.552 3.6900000000000004,-8.241 8.241,-8.241 h42.581 c4.552,0 8.241,3.6900000000000004 8.241,8.241 v42.581 c0,4.551 -3.6900000000000004,8.241 -8.241,8.241 z" fill="#6ac9fc" id="svg_14" class="" fill-opacity="1"/><g id="svg_15" class="" fill-opacity="1" fill="#2b4d66"><path d="m381.5675170288086,430.8584828491211 h-164.142 c-4.268,0 -7.726,-3.459 -7.726,-7.726 s3.459,-7.726 7.726,-7.726 h164.143 c4.268,0 7.726,3.459 7.726,7.726 s-3.459,7.726 -7.727,7.726 z" fill="#2b4d66" id="svg_16"/></g><path d="m271.3925170288086,216.91048284912108 h-136.973 c-5.69,0 -10.302,-4.612 -10.302,-10.302 v-136.972 c0,-5.69 4.612,-10.302 10.302,-10.302 h136.972 c5.69,0 10.302,4.612 10.302,10.302 v136.972 c0.0010000000000000005,5.69 -4.612,10.302 -10.301,10.302 z" fill="#fbfdff" id="svg_17" class="" fill-opacity="1"/><circle cx="202.44100887342734" cy="118.42639708898383" fill="#ffd5cc" r="35.62873077392578" id="svg_18" class="" fill-opacity="1"/><path d="m151.7980332159972,216.10658361577015 h103.66423735264878 v-22.1357838896513 c0,-22.03231465351582 -23.20540162794592,-39.89269664490223 -51.831256918985275,-39.89269664490223 c-28.62585529103935,0 -51.831256918985275,17.860381991386415 -51.831256918985275,39.89269664490223 v22.1357838896513 z" fill="#ff623c" id="svg_19" class="" fill-opacity="1"/><g id="svg_20" class="" fill-opacity="1" fill="#2b4d66"><g id="svg_21" fill="#2b4d66"><path d="m381.5675170288086,104.7824828491211 h-68.289 c-4.268,0 -7.726,-3.459 -7.726,-7.726 c0,-4.268 3.459,-7.726 7.726,-7.726 h68.289 c4.268,0 7.726,3.459 7.726,7.726 c0.0010000000000000005,4.267 -3.458,7.726 -7.726,7.726 z" fill="#2b4d66" id="svg_22"/></g><g id="svg_23" fill="#2b4d66"><path d="m381.5675170288086,148.5864828491211 h-68.289 c-4.268,0 -7.726,-3.459 -7.726,-7.726 s3.459,-7.726 7.726,-7.726 h68.289 c4.268,0 7.726,3.459 7.726,7.726 s-3.458,7.726 -7.726,7.726 z" fill="#2b4d66" id="svg_24"/></g><g id="svg_25" fill="#2b4d66"><path d="m381.5675170288086,195.3084828491211 h-68.289 c-4.268,0 -7.726,-3.459 -7.726,-7.726 c0,-4.268 3.459,-7.726 7.726,-7.726 h68.289 c4.268,0 7.726,3.459 7.726,7.726 c0.0010000000000000005,4.267 -3.458,7.726 -7.726,7.726 z" fill="#2b4d66" id="svg_26"/></g></g><g id="svg_27" class="" fill-opacity="1" fill="#2b4d66"><path d="m381.5675170288086,269.9184828491211 h-257.449 c-4.268,0 -7.726,-3.459 -7.726,-7.726 s3.459,-7.726 7.726,-7.726 h257.45 c4.268,0 7.726,3.459 7.726,7.726 s-3.459,7.726 -7.727,7.726 z" fill="#2b4d66" id="svg_28"/></g><g id="svg_29" class=""><path d="m381.5675170288086,313.7214828491211 h-257.449 c-4.268,0 -7.726,-3.459 -7.726,-7.726 s3.459,-7.726 7.726,-7.726 h257.45 c4.268,0 7.726,3.459 7.726,7.726 s-3.459,7.726 -7.727,7.726 z" fill="#3e5959" id="svg_30"/></g><g class="" id="svg_1" fill-opacity="1" fill="#2b4d66"><path d="m381.5675170288086,313.7214828491211 h-257.449 c-4.268,0 -7.726,-3.459 -7.726,-7.726 s3.459,-7.726 7.726,-7.726 h257.45 c4.268,0 7.726,3.459 7.726,7.726 s-3.459,7.726 -7.727,7.726 z" fill="#2b4d66" id="svg_3"/></g><g id="svg_31" class="" fill-opacity="1" fill="#2b4d66"><path d="m381.5675170288086,357.5244828491211 h-257.449 c-4.268,0 -7.726,-3.459 -7.726,-7.726 s3.459,-7.726 7.726,-7.726 h257.45 c4.268,0 7.726,3.459 7.726,7.726 s-3.459,7.726 -7.727,7.726 z" fill="#2b4d66" id="svg_32"/></g><g id="svg_33" class="" fill-opacity="1" fill="#2b4d66"><path d="m147.27951702880858,446.5944828491211 c-0.22300000000000006,0 -0.4470000000000001,-0.010000000000000004 -0.6710000000000004,-0.02900000000000001 c-2.358,-0.20500000000000004 -4.491,-1.48 -5.79,-3.458 l-19.224,-29.294 c-2.341,-3.567 -1.347,-8.358 2.22,-10.699 c3.567,-2.34 8.358,-1.347 10.699,2.22 l13.847,21.101 l48.915,-52.036 c2.923,-3.111 7.812,-3.261 10.922,-0.3380000000000002 s3.261,7.813 0.3380000000000002,10.922 l-55.628,59.177 c-1.466,1.56 -3.507,2.434 -5.628,2.434 z" fill="#2b4d66" id="svg_34"/></g><path d="m410.8285170288086,17.87848284912109 h-32.228 c10.035,0 18.171,8.135 18.171,18.171 v439.902 c0,10.035 -8.135,18.171 -18.171,18.171 h32.228 c10.035,0 18.171,-8.135 18.171,-18.171 v-439.903 c0,-10.035 -8.136,-18.17 -18.171,-18.17 z" fill="#98d7f9" id="svg_35" class="" fill-opacity="1"/></g></svg>