<svg xmlns="http://www.w3.org/2000/svg" enable-background="new 0 0 512 512" height="512" width="512"><rect id="backgroundrect" width="100%" height="100%" x="0" y="0" fill="none" stroke="none" class="selected" style=""/><g class="currentLayer" style=""><title>Layer 1</title><g id="svg_1" class="" fill="#ffffff" fill-opacity="1"><path d="m482.284 482h-39.573v-467c0-8.284-6.716-15-15-15h-343.423c-8.284 0-15 6.716-15 15v467h-39.572c-8.284 0-15 6.716-15 15s6.716 15 15 15h452.569c8.284 0 15-6.716 15-15s-6.716-15-15.001-15zm-277.415 0v-102.261h102.261v102.261zm132.261 0v-117.261c0-8.284-6.716-15-15-15h-132.261c-8.284 0-15 6.716-15 15v117.261h-75.581v-452h313.423v452z" id="svg_2" fill="#ffffff" fill-opacity="1"/><path d="m223.748 66.309h-73.508c-8.284 0-15 6.716-15 15v73.508c0 8.284 6.716 15 15 15h73.508c8.284 0 15-6.716 15-15v-73.508c0-8.284-6.716-15-15-15zm-15 73.508h-43.508v-43.508h43.508z" id="svg_3" fill="#ffffff" fill-opacity="1"/><path d="m361.76 66.309h-73.508c-8.284 0-15 6.716-15 15v73.508c0 8.284 6.716 15 15 15h73.508c8.284 0 15-6.716 15-15v-73.508c0-8.284-6.716-15-15-15zm-15 73.508h-43.508v-43.508h43.508z" id="svg_4" fill="#ffffff" fill-opacity="1"/><path d="m223.748 205.954h-73.508c-8.284 0-15 6.716-15 15v73.508c0 8.284 6.716 15 15 15h73.508c8.284 0 15-6.716 15-15v-73.508c0-8.284-6.716-15-15-15zm-15 73.508h-43.508v-43.508h43.508z" id="svg_5" fill="#ffffff" fill-opacity="1"/><path d="m361.76 205.954h-73.508c-8.284 0-15 6.716-15 15v73.508c0 8.284 6.716 15 15 15h73.508c8.284 0 15-6.716 15-15v-73.508c0-8.284-6.716-15-15-15zm-15 73.508h-43.508v-43.508h43.508z" id="svg_6" fill="#ffffff" fill-opacity="1"/></g></g></svg>