<svg xmlns="http://www.w3.org/2000/svg" enable-background="new 0 0 512 512" height="512" width="512"><rect id="backgroundrect" width="100%" height="100%" x="0" y="0" fill="none" stroke="none" class="selected" style=""/><g class="currentLayer" style=""><title>Layer 1</title><path d="m246.23 426.666h-195.039c-18.851 0-34.132-15.282-34.132-34.132v-34.134h261.957z" fill="#cee8ff" id="svg_3" class="" fill-opacity="1"/><path d="m460.825 153.6v143.398 95.534h-409.634c-18.851 0-34.132-15.282-34.132-34.133v-204.799l238.95-85.334z" fill="#fbfdff" id="svg_4" class="" fill-opacity="1"/><path d="m77.336 221.867h-18.133c-4.418 0-8-3.582-8-8v-18.133c0-4.418 3.582-8 8-8h18.133c4.418 0 8 3.582 8 8v18.133c0 4.418-3.582 8-8 8z" id="svg_6" class=""/><path d="m77.336,221.867 h-18.133 c-4.418,0 -8,-3.582 -8,-8 v-18.133 c0,-4.418 3.582,-8 8,-8 h18.133 c4.418,0 8,3.582 8,8 v18.133 c0,4.418 -3.582,8 -8,8 z" class="" id="svg_1" fill-opacity="1" fill="#224760"/><path d="m145.603 221.867h-18.133c-4.418 0-8-3.582-8-8v-18.133c0-4.418 3.582-8 8-8h18.133c4.418 0 8 3.582 8 8v18.133c0 4.418-3.582 8-8 8z" id="svg_7" class=""/><path d="m145.603,221.867 h-18.133 c-4.418,0 -8,-3.582 -8,-8 v-18.133 c0,-4.418 3.582,-8 8,-8 h18.133 c4.418,0 8,3.582 8,8 v18.133 c0,4.418 -3.582,8 -8,8 z" class="" id="svg_2" fill-opacity="1" fill="#224760"/><path d="m213.869 221.867h-18.133c-4.418 0-8-3.582-8-8v-18.133c0-4.418 3.582-8 8-8h18.133c4.418 0 8 3.582 8 8v18.133c0 4.418-3.581 8-8 8z" id="svg_8" class=""/><path d="m213.869,221.867 h-18.133 c-4.418,0 -8,-3.582 -8,-8 v-18.133 c0,-4.418 3.582,-8 8,-8 h18.133 c4.418,0 8,3.582 8,8 v18.133 c0,4.418 -3.581,8 -8,8 z" class="" id="svg_5" fill-opacity="1" fill="#224760"/><path d="m282.136 221.867h-18.133c-4.418 0-8-3.582-8-8v-18.133c0-4.418 3.582-8 8-8h18.133c4.418 0 8 3.582 8 8v18.133c0 4.418-3.582 8-8 8z" id="svg_9" class=""/><path d="m282.136,221.867 h-18.133 c-4.418,0 -8,-3.582 -8,-8 v-18.133 c0,-4.418 3.582,-8 8,-8 h18.133 c4.418,0 8,3.582 8,8 v18.133 c0,4.418 -3.582,8 -8,8 z" class="" id="svg_62" fill-opacity="1" fill="#224760"/><path d="m350.391 221.867h-18.133c-4.418 0-8-3.582-8-8v-18.133c0-4.418 3.582-8 8-8h18.133c4.418 0 8 3.582 8 8v18.133c0 4.418-3.581 8-8 8z" id="svg_10" class=""/><path d="m350.391,221.867 h-18.133 c-4.418,0 -8,-3.582 -8,-8 v-18.133 c0,-4.418 3.582,-8 8,-8 h18.133 c4.418,0 8,3.582 8,8 v18.133 c0,4.418 -3.581,8 -8,8 z" class="" id="svg_63" fill-opacity="1" fill="#224760"/><path d="m418.658 221.867h-18.133c-4.418 0-8-3.582-8-8v-18.133c0-4.418 3.582-8 8-8h18.133c4.418 0 8 3.582 8 8v18.133c0 4.418-3.582 8-8 8z" id="svg_11" class=""/><path d="m418.658,221.867 h-18.133 c-4.418,0 -8,-3.582 -8,-8 v-18.133 c0,-4.418 3.582,-8 8,-8 h18.133 c4.418,0 8,3.582 8,8 v18.133 c0,4.418 -3.582,8 -8,8 z" class="" id="svg_64" fill-opacity="1" fill="#224760"/><path d="m77.336 290.133h-18.133c-4.418 0-8-3.582-8-8v-18.133c0-4.418 3.582-8 8-8h18.133c4.418 0 8 3.582 8 8v18.133c0 4.419-3.582 8-8 8z" id="svg_12" class="" fill-opacity="1" fill="#224760"/><path d="m145.603 290.133h-18.133c-4.418 0-8-3.582-8-8v-18.133c0-4.418 3.582-8 8-8h18.133c4.418 0 8 3.582 8 8v18.133c0 4.419-3.582 8-8 8z" id="svg_13" class="" fill-opacity="1" fill="#224760"/><path d="m213.869 290.133h-18.133c-4.418 0-8-3.582-8-8v-18.133c0-4.418 3.582-8 8-8h18.133c4.418 0 8 3.582 8 8v18.133c0 4.419-3.581 8-8 8z" id="svg_14" class="" fill-opacity="1" fill="#224760"/><path d="m290.136 290.133v-25.6c0-4.713-3.82-8.533-8.533-8.533h-17.067c-4.713 0-8.533 3.82-8.533 8.533v17.067c0 4.713 3.821 8.533 8.533 8.533z" id="svg_15" class=""/><path d="m290.136,290.133 v-25.6 c0,-4.713 -3.8200000000000003,-8.533 -8.533,-8.533 h-17.067 c-4.713,0 -8.533,3.8200000000000003 -8.533,8.533 v17.067 c0,4.713 3.821,8.533 8.533,8.533 z" class="" id="svg_65" fill-opacity="1" fill="#224760"/><path d="m77.336 358.4h-18.133c-4.418 0-8-3.582-8-8v-18.133c0-4.418 3.582-8 8-8h18.133c4.418 0 8 3.582 8 8v18.133c0 4.418-3.582 8-8 8z" id="svg_16" class="" fill-opacity="1" fill="#224760"/><path d="m145.603 358.4h-18.133c-4.418 0-8-3.582-8-8v-18.133c0-4.418 3.582-8 8-8h18.133c4.418 0 8 3.582 8 8v18.133c0 4.418-3.582 8-8 8z" id="svg_17" class="" fill-opacity="1" fill="#224760"/><path d="m213.869 358.4h-18.133c-4.418 0-8-3.582-8-8v-18.133c0-4.418 3.582-8 8-8h18.133c4.418 0 8 3.582 8 8v18.133c0 4.418-3.581 8-8 8z" id="svg_18" class="" fill-opacity="1" fill="#224760"/><path d="m418.417 187.733h-17.65c-1.068 0-2.085.21-3.022.579 3.055 1.206 5.219 4.178 5.219 7.662v17.65c0 3.484-2.165 6.456-5.219 7.662.937.37 1.954.58 3.022.58h17.65c4.552 0 8.242-3.69 8.242-8.241v-17.65c-.001-4.552-3.691-8.242-8.242-8.242z" fill="#2b4d66" id="svg_19" class="" fill-opacity="1"/><path d="m350.15 187.733h-17.65c-1.068 0-2.085.21-3.022.579 3.055 1.206 5.219 4.178 5.219 7.662v17.65c0 3.484-2.165 6.456-5.219 7.662.937.37 1.954.58 3.022.58h17.65c4.552 0 8.241-3.69 8.241-8.241v-17.65c0-4.552-3.689-8.242-8.241-8.242z" fill="#2b4d66" id="svg_20" class="" fill-opacity="1"/><path d="m281.895 187.733h-17.65c-1.068 0-2.085.21-3.022.579 3.055 1.206 5.22 4.178 5.22 7.662v17.65c0 3.484-2.165 6.456-5.22 7.662.937.37 1.954.58 3.022.58h17.65c4.552 0 8.242-3.69 8.242-8.241v-17.65c-.001-4.552-3.691-8.242-8.242-8.242z" fill="#2b4d66" id="svg_21" class="" fill-opacity="1"/><path d="m213.628 187.733h-17.65c-1.068 0-2.085.21-3.022.579 3.055 1.206 5.22 4.178 5.22 7.662v17.65c0 3.484-2.165 6.456-5.22 7.662.937.37 1.954.58 3.022.58h17.65c4.552 0 8.242-3.69 8.242-8.241v-17.65c-.001-4.552-3.69-8.242-8.242-8.242z" fill="#2b4d66" id="svg_22" class="" fill-opacity="1"/><path d="m145.361 187.733h-17.65c-1.068 0-2.085.21-3.022.579 3.055 1.206 5.219 4.178 5.219 7.662v17.65c0 3.484-2.165 6.456-5.219 7.662.937.37 1.954.58 3.022.58h17.65c4.552 0 8.242-3.69 8.242-8.241v-17.65c0-4.552-3.69-8.242-8.242-8.242z" fill="#2b4d66" id="svg_23" class="" fill-opacity="1"/><path d="m77.095 187.733h-17.65c-1.068 0-2.085.21-3.022.579 3.055 1.206 5.22 4.178 5.22 7.662v17.65c0 3.484-2.165 6.456-5.22 7.662.937.37 1.954.58 3.022.58h17.65c4.552 0 8.242-3.69 8.242-8.241v-17.65c-.001-4.552-3.691-8.242-8.242-8.242z" fill="#2b4d66" id="svg_24" class="" fill-opacity="1"/><path d="m77.095 256h-17.65c-1.068 0-2.085.21-3.022.579 3.055 1.206 5.22 4.178 5.22 7.662v17.651c0 3.484-2.165 6.456-5.22 7.662.937.37 1.954.58 3.022.58h17.65c4.552 0 8.242-3.69 8.242-8.241v-17.651c-.001-4.552-3.691-8.242-8.242-8.242z" fill="#2b4d66" id="svg_25" class="" fill-opacity="1"/><path d="m77.095 324.267h-17.65c-1.068 0-2.085.21-3.022.579 3.055 1.206 5.22 4.178 5.22 7.662v17.651c0 3.484-2.165 6.456-5.22 7.662.937.37 1.954.58 3.022.58h17.65c4.552 0 8.242-3.69 8.242-8.241v-17.651c-.001-4.553-3.691-8.242-8.242-8.242z" fill="#2a428c" id="svg_26" class=""/><path d="m77.095,324.267 h-17.65 c-1.068,0 -2.085,0.21000000000000002 -3.022,0.5790000000000001 c3.055,1.206 5.22,4.178 5.22,7.662 v17.651 c0,3.484 -2.165,6.456 -5.22,7.662 c0.937,0.37000000000000005 1.9540000000000002,0.5800000000000001 3.022,0.5800000000000001 h17.65 c4.552,0 8.242,-3.6900000000000004 8.242,-8.241 v-17.651 c-0.0010000000000000002,-4.553 -3.6910000000000003,-8.242 -8.242,-8.242 z" fill="#2b4d66" class="" id="svg_61" fill-opacity="1"/><path d="m145.361 256h-17.65c-1.068 0-2.085.21-3.022.579 3.055 1.206 5.219 4.178 5.219 7.662v17.651c0 3.484-2.165 6.456-5.219 7.662.937.37 1.954.58 3.022.58h17.65c4.552 0 8.242-3.69 8.242-8.241v-17.651c0-4.552-3.69-8.242-8.242-8.242z" fill="#2b4d66" id="svg_27" class="" fill-opacity="1"/><path d="m145.361 324.267h-17.65c-1.068 0-2.085.21-3.022.579 3.055 1.206 5.219 4.178 5.219 7.662v17.651c0 3.484-2.165 6.456-5.219 7.662.937.37 1.954.58 3.022.58h17.65c4.552 0 8.242-3.69 8.242-8.241v-17.651c0-4.553-3.69-8.242-8.242-8.242z" fill="#2b4d66" id="svg_28" class="" fill-opacity="1"/><path d="m213.628 256h-17.65c-1.068 0-2.085.21-3.022.579 3.055 1.206 5.22 4.178 5.22 7.662v17.651c0 3.484-2.165 6.456-5.22 7.662.937.37 1.954.58 3.022.58h17.65c4.552 0 8.242-3.69 8.242-8.241v-17.651c-.001-4.552-3.69-8.242-8.242-8.242z" fill="#2b4d66" id="svg_29" class="" fill-opacity="1"/><path d="m290.136 290.133v-25.892c0-4.552-3.69-8.241-8.242-8.241h-17.65c-1.068 0-2.085.21-3.022.579 3.055 1.206 5.22 4.178 5.22 7.662v17.651c0 3.484-2.165 6.456-5.22 7.662.937.37 1.954.58 3.022.58h25.892z" fill="#2b4d66" id="svg_30" class="" fill-opacity="1"/><path d="m213.628 324.267h-17.65c-1.068 0-2.085.21-3.022.579 3.055 1.206 5.22 4.178 5.22 7.662v17.651c0 3.484-2.165 6.456-5.22 7.662.937.37 1.954.58 3.022.58h17.65c4.552 0 8.242-3.69 8.242-8.241v-17.651c-.001-4.553-3.69-8.242-8.242-8.242z" fill="#2b4d66" id="svg_31" class="" fill-opacity="1"/><path d="m437.114 143.721v153.277 95.535h23.711v-95.535-143.398z" fill="#cee8ff" id="svg_32" class="" fill-opacity="1"/><path d="m460.825 153.6v-85.334c0-18.851-15.282-34.132-34.132-34.132h-375.502c-18.851 0-34.132 15.281-34.132 34.132v85.334z" fill="#ff623c" id="svg_33" class="" fill-opacity="1"/><g id="svg_34" class="" fill-opacity="1" fill="#ff4319"><g id="svg_35" fill="#ff4319"><g id="svg_36" fill="#ff4319"><path d="m124.609 75.993h-22.217c-4.268 0-7.726-3.459-7.726-7.726s3.459-7.726 7.726-7.726h22.217c4.268 0 7.726 3.459 7.726 7.726s-3.459 7.726-7.726 7.726z" fill="#ff4319" id="svg_37"/></g><g id="svg_38" fill="#ff4319"><path d="m179.191 75.993h-22.217c-4.268 0-7.726-3.459-7.726-7.726s3.459-7.726 7.726-7.726h22.217c4.268 0 7.726 3.459 7.726 7.726s-3.458 7.726-7.726 7.726z" fill="#ff4319" id="svg_39"/></g><g id="svg_40" fill="#ff4319"><path d="m320.887 75.993h-22.218c-4.268 0-7.726-3.459-7.726-7.726s3.459-7.726 7.726-7.726h22.218c4.268 0 7.726 3.459 7.726 7.726s-3.458 7.726-7.726 7.726z" fill="#ff4319" id="svg_41"/></g><g id="svg_42" fill="#ff4319"><path d="m375.47 75.993h-22.218c-4.268 0-7.726-3.459-7.726-7.726s3.459-7.726 7.726-7.726h22.218c4.268 0 7.726 3.459 7.726 7.726s-3.459 7.726-7.726 7.726z" fill="#ff4319" id="svg_43"/></g></g></g><path d="m162.125 64c0 11.782-9.551 21.333-21.333 21.333s-21.333-9.551-21.333-21.333v-42.667c-.001-11.782 9.55-21.333 21.332-21.333s21.333 9.551 21.333 21.333v42.667z" fill="#fbfdff" id="svg_44" class="" fill-opacity="1"/><path d="m358.403 64c0 11.782-9.551 21.333-21.333 21.333s-21.334-9.551-21.334-21.333v-42.667c0-11.782 9.551-21.333 21.333-21.333s21.333 9.551 21.333 21.333v42.667z" fill="#fbfdff" id="svg_45" class="" fill-opacity="1"/><path d="m337.069 0c-4.38 0-8.448 1.324-11.836 3.588 5.725 3.826 9.498 10.343 9.498 17.746v42.666c0 7.402-3.773 13.92-9.498 17.746 3.387 2.263 7.456 3.588 11.836 3.588 11.782 0 21.333-9.551 21.333-21.333v-42.668c.001-11.782-9.55-21.333-21.333-21.333z" fill="#cee8ff" id="svg_46" class="" fill-opacity="1"/><path d="m140.791 0c-4.38 0-8.448 1.324-11.836 3.588 5.725 3.826 9.498 10.343 9.498 17.746v42.666c0 7.402-3.773 13.92-9.498 17.746 3.387 2.263 7.456 3.588 11.836 3.588 11.782 0 21.333-9.551 21.333-21.333v-42.668c.001-11.782-9.55-21.333-21.333-21.333z" fill="#d3dcfb" id="svg_47" class=""/><path d="m140.791,0 c-4.38,0 -8.448,1.324 -11.836,3.588 c5.725,3.826 9.498,10.343 9.498,17.746 v42.666 c0,7.402 -3.773,13.92 -9.498,17.746 c3.387,2.263 7.456,3.588 11.836,3.588 c11.782,0 21.333,-9.551 21.333,-21.333 v-42.668 c0.0010000000000000002,-11.782 -9.55,-21.333 -21.333,-21.333 z" fill="#cee8ff" class="" id="svg_67" fill-opacity="1"/><path d="m426.693 34.133h-23.703c18.851 0 34.132 15.281 34.132 34.132v85.335h23.702v-85.334c.001-18.851-15.281-34.133-34.131-34.133z" fill="#ff4319" id="svg_48" class="" fill-opacity="1"/><path d="m17.058 111.74h443.767v15.453h-443.767z" fill="#e80054" id="svg_49" class=""/><path d="m17.058,111.74 h443.767 v15.453 h-443.767 z" fill="#ff4319" class="" id="svg_66" fill-opacity="1"/><circle cx="366.9419860839844" cy="384" fill="#98d7f9" r="128" id="svg_50" class="" fill-opacity="1"/><circle cx="366.9419860839844" cy="384" fill="#fbfdff" r="93.86699676513672" id="svg_51" class="" fill-opacity="1"/><g id="svg_52" class="" fill-opacity="1" fill="#2b4d66"><g id="svg_53" fill="#2b4d66"><path d="m366.942 374.659c-4.268 0-7.726-3.459-7.726-7.726v-42.667c0-4.267 3.459-7.726 7.726-7.726 4.268 0 7.726 3.459 7.726 7.726v42.667c0 4.267-3.459 7.726-7.726 7.726z" fill="#2b4d66" id="svg_54"/></g></g><g id="svg_55" class="" fill-opacity="1" fill="#2b4d66"><g id="svg_56" fill="#2b4d66"><path d="m409.609 391.726h-25.601c-4.268 0-7.726-3.459-7.726-7.726s3.459-7.726 7.726-7.726h25.601c4.268 0 7.726 3.459 7.726 7.726s-3.459 7.726-7.726 7.726z" fill="#2b4d66" id="svg_57"/></g></g><path d="m366.942 256c-3.995 0-7.945.193-11.847.551 65.137 5.979 116.152 60.752 116.152 127.449s-51.016 121.47-116.153 127.449c3.902.358 7.852.551 11.847.551 70.692 0 128-57.308 128-128s-57.307-128-127.999-128z" fill="#9bddff" id="svg_58" class="" fill-opacity="1"/><path d="m366.942 290.133c-4.01 0-7.961.253-11.839.741 46.252 5.821 82.028 45.295 82.028 93.126s-35.776 87.305-82.028 93.126c3.878.488 7.829.741 11.839.741 51.841 0 93.867-42.026 93.867-93.867s-42.026-93.867-93.867-93.867z" fill="#d9f1f4" id="svg_59" class="" fill-opacity="1"/><circle cx="366.9419860839844" cy="384" fill="#ff623c" r="17.066999435424805" id="svg_60" class="" fill-opacity="1"/></g></svg>