<svg xmlns="http://www.w3.org/2000/svg" enable-background="new 0 0 512 512" height="512" width="512" style=""><rect id="backgroundrect" width="100%" height="100%" x="0" y="0" fill="none" stroke="none"/><g class="currentLayer" style=""><title>Layer 1</title><circle cx="256" cy="256" fill="#98d7f9" r="256" id="svg_2" class="" fill-opacity="1"/><path d="m256 0c-4.57 0-9.111.125-13.622.361 135.052 7.082 242.379 118.824 242.379 255.639s-107.327 248.557-242.379 255.639c4.511.236 9.052.361 13.622.361 141.385 0 256-114.615 256-256s-114.615-256-256-256z" fill="#9bddff" id="svg_3" class="" fill-opacity="1"/><circle cx="256" cy="256" fill="#fbfdff" r="199.48699951171875" id="svg_4" class="" fill-opacity="1"/><path d="m256 56.513c-5.525 0-10.994.235-16.405.675 102.499 8.344 183.083 94.163 183.083 198.812s-80.584 190.467-183.083 198.812c5.411.441 10.88.676 16.405.676 110.174 0 199.487-89.314 199.487-199.487s-89.313-199.488-199.487-199.488z" fill="#d9f1f4" id="svg_5" class="" fill-opacity="1"/><g id="svg_6" class="" stroke-width="4" stroke="#2b4d66" stroke-opacity="1"><g id="svg_7" stroke-width="4" stroke="#2b4d66"><path d="m256 117.911c-4.267 0-7.726-3.459-7.726-7.726v-11.34c0-4.267 3.459-7.726 7.726-7.726s7.727 3.459 7.727 7.726v11.34c0 4.267-3.46 7.726-7.727 7.726z" fill="#2b4d66" id="svg_8" stroke-width="4" stroke="#2b4d66"/></g><g id="svg_9" stroke-width="4" stroke="#2b4d66"><path d="m358.687 160.794c-1.978 0-3.955-.755-5.464-2.263-3.017-3.018-3.017-7.909.001-10.927l8.019-8.018c3.017-3.018 7.909-3.017 10.927 0 3.017 3.018 3.017 7.909-.001 10.927l-8.019 8.019c-1.509 1.507-3.486 2.262-5.463 2.262z" fill="#2b4d66" id="svg_10" stroke-width="4" stroke="#2b4d66"/></g><g id="svg_11" stroke-width="4" stroke="#2b4d66"><path d="m412.315 263.727h-11.34c-4.268 0-7.726-3.459-7.726-7.726s3.459-7.726 7.726-7.726h11.34c4.268 0 7.726 3.459 7.726 7.726s-3.459 7.726-7.726 7.726z" fill="#2b4d66" id="svg_12" stroke-width="4" stroke="#2b4d66"/></g><g id="svg_13" stroke-width="4" stroke="#2b4d66"><path d="m366.11 374.433c-1.977 0-3.955-.755-5.464-2.263l-8.018-8.018c-3.017-3.018-3.017-7.909 0-10.928 3.018-3.016 7.909-3.016 10.928 0l8.018 8.018c3.017 3.018 3.017 7.909 0 10.928-1.509 1.508-3.487 2.263-5.464 2.263z" fill="#2b4d66" id="svg_14" stroke-width="4" stroke="#2b4d66"/></g><g id="svg_15" stroke-width="4" stroke="#2b4d66"><path d="m255.158 420.043c-4.267 0-7.726-3.459-7.726-7.726v-11.34c0-4.268 3.459-7.726 7.726-7.726s7.726 3.459 7.726 7.726v11.34c0 4.267-3.459 7.726-7.726 7.726z" fill="#2b4d66" id="svg_16" stroke-width="4" stroke="#2b4d66"/></g><g id="svg_17" stroke-width="4" stroke="#2b4d66"><path d="m144.452 373.837c-1.977 0-3.955-.755-5.463-2.264-3.018-3.017-3.017-7.909 0-10.927l8.019-8.018c3.018-3.016 7.909-3.017 10.927.001 3.017 3.017 3.017 7.909-.001 10.927l-8.019 8.018c-1.508 1.509-3.486 2.263-5.463 2.263z" fill="#2b4d66" id="svg_18" stroke-width="4" stroke="#2b4d66"/></g><g id="svg_19" stroke-width="4" stroke="#2b4d66"><path d="m110.183 262.886h-11.34c-4.267 0-7.726-3.459-7.726-7.726s3.459-7.726 7.726-7.726h11.34c4.267 0 7.726 3.459 7.726 7.726.001 4.267-3.459 7.726-7.726 7.726z" fill="#2b4d66" id="svg_20" stroke-width="4" stroke="#2b4d66"/></g><g id="svg_21" stroke-width="4" stroke="#2b4d66"><path d="m153.067 160.199c-1.977 0-3.954-.754-5.463-2.263l-8.019-8.018c-3.017-3.018-3.018-7.909-.001-10.927 3.018-3.017 7.909-3.018 10.927-.001l8.019 8.019c3.017 3.017 3.018 7.909.001 10.927-1.51 1.508-3.487 2.263-5.464 2.263z" fill="#2b4d66" id="svg_22" stroke-width="4" stroke="#2b4d66"/></g></g><path d="m256 263.727h-65.62c-4.267 0-7.726-3.46-7.726-7.727s3.459-7.726 7.726-7.726h57.893v-98.297c0-4.267 3.459-7.726 7.726-7.726s7.726 3.459 7.726 7.726v106.023c.001 4.267-3.458 7.727-7.725 7.727z" fill="#2b4d66" id="svg_24" class="" stroke-width="12" stroke="#2b4d66" stroke-opacity="1" fill-opacity="1"/><g id="svg_25" class="" fill-opacity="1" fill="#ff623c" stroke-opacity="1" stroke="#ff623c" stroke-width="11"><path d="m347.3349654350281,308.70834619140624 c-1.19,0 -2.396,-0.276 -3.527,-0.8570000000000008 l-79.272,-40.764 c-3.795,-1.951 -5.289,-6.609 -3.338,-10.404 s6.609,-5.29 10.405,-3.338 l79.272,40.763 c3.795,1.952 5.29,6.61 3.338,10.404 c-1.371,2.665 -4.075,4.196 -6.878,4.196 z" fill="#ff623c" id="svg_26" stroke="#ff623c" stroke-width="11"/></g><circle cx="256" cy="256" fill="#365e7d" r="20.621999740600586" id="svg_27" class="" fill-opacity="1" stroke-opacity="1" stroke="#365e7d" stroke-width="10"/></g></svg>