<svg xmlns="http://www.w3.org/2000/svg" enable-background="new 0 0 480.063 480.063" height="480.06298828125" width="480.06298828125"><rect id="backgroundrect" width="100%" height="100%" x="0" y="0" fill="none" stroke="none" class="" style=""/><g class="currentLayer" style=""><title>Layer 1</title><path fill="#ff623c" fill-opacity="1" stroke="none" stroke-opacity="1" stroke-width="2" stroke-dasharray="none" stroke-linejoin="miter" stroke-linecap="butt" stroke-dashoffset="" fill-rule="nonzero" opacity="1" marker-start="" marker-mid="" marker-end="" id="svg_4" d="M133.13493,206.59549L116.55172,184.82759L117.93103,103.44828C117.96251,103.83687 148.30734,44.52653 148.30734,43.83688C148.30734,43.14722 194.51423,15.56101 194.48276,15.17241C194.51423,15.56101 249.68665,10.73343 249.65517,10.34483C249.68665,10.73343 284.1694,16.25067 284.13793,15.86207C284.1694,16.25067 309.68664,24.52653 309.65517,24.13793C309.68664,24.52653 318.65216,41.76791 318.65216,41.07826C318.65216,40.3886 359.34182,58.31963 359.31034,57.93103C359.34182,58.31963 376.58319,82.45756 376.55172,82.06897C376.58319,82.45756 366.23837,111.42308 366.2069,111.03448C366.23837,111.42308 364.1694,176.25066 364.13793,175.86207C364.1694,176.25066 357.27285,186.59549 346.23837,185.90584C335.20389,185.21618 335.20389,185.21618 335.17241,184.82759C335.20389,185.21618 335.20389,148.66446 335.17241,148.27586C335.20389,148.66446 333.82457,121.07825 333.7931,120.68966C333.82457,121.07825 316.5832,110.04377 316.55172,109.65517C316.5832,110.04377 298.65216,93.49205 298.62069,93.10345C298.65216,93.49205 263.47975,96.94032 263.44828,96.55172C263.47975,96.94032 230.3763,96.94032 230.34483,96.55172C230.3763,96.94032 202.10044,101.76791 202.06897,101.37931C202.10044,101.76791 183.47975,99.69894 183.44828,99.31034C183.47975,99.69894 164.16941,101.76791 164.13793,101.37931C164.16941,101.76791 148.30734,127.9748 148.27586,127.58621C148.30734,127.9748 140.70484,151.04968 133.13493,206.59549z" style="color: rgb(255, 98, 60);" class=""/><path d="m402.032 424.806v47.257c0 4.418-3.582 8-8 8s-8-3.582-8-8v-47.257c0-36.795-29.775-66.572-66.573-66.571-17.411 0-33.208-8.87-42.259-23.728-2.298-3.773-1.103-8.696 2.671-10.994 3.773-2.299 8.695-1.103 10.994 2.671 6.122 10.051 16.811 16.051 28.594 16.051 45.637-.002 82.573 36.93 82.573 82.571zm-139.606-80.193c.941 4.317-1.796 8.579-6.113 9.52-21.054 4.587-42.467-.005-59.516-11.642-16.878 18.087-39.176 15.744-36.191 15.744-36.795-.001-66.573 29.773-66.573 66.571v47.257c0 4.418-3.582 8-8 8s-8-3.582-8-8v-47.257c0-45.636 36.929-82.571 82.571-82.571 18.462 0 33.429-14.875 33.429-33.342v-2.107c-34.919-16.697-59.429-51.784-60.923-92.643-14.37-3.455-25.077-16.317-25.077-31.62v-41.473c-.437-20.3 2.577-71.143 39.648-106.877 45.775-44.126 119.183-41.323 173.161-15.338 5.261 2.535 6.06 9.643 1.691 13.324 27.345 6.67 50.925 23.48 66.074 47.538.782 1.239 2.214 3.184 1.84 6.287-.232 1.931-.807 3.565-2.295 5.075-9.75 9.888-15.119 22.991-15.119 36.896v54.57c0 4.418-3.582 8-8 8s-8-3.582-8-8v-54.57c0-16.037 5.479-31.259 15.542-43.487-15.338-21.936-39.268-36.044-66.332-38.942l-14.061-1.506c-8.222-.88-9.835-12.207-2.194-15.352l6.395-2.633c-83.286-29.035-172.351 3.226-172.351 114.928v41.56c0 6.348 3.656 11.865 9 14.636v-51.863c0-30.878 25.122-56 56-56h102c30.878 0 56 25.12 56 55.997v65.503c0 69.574-67.988 122.42-137.17 102.053-.45 5.708-1.871 11.216-4.186 16.336 13.458 9.242 30.453 12.97 47.23 9.314 4.317-.94 8.579 1.797 9.52 6.114zm-22.394-43.425c50.178 0 91-40.822 91-91v-64.895c0-22.054-17.944-39.997-40-39.997h-102c-22.056 0-40 17.944-40 40v64.892c0 50.178 40.822 91 91 91zm81 137.875h-24c-4.418 0-8 3.582-8 8s3.582 8 8 8h24c4.418 0 8-3.582 8-8s-3.582-8-8-8z" id="svg_1" class="" fill-opacity="1" fill="#203a4c" stroke-opacity="1" stroke="#203a4c" stroke-width="2"/></g></svg>