<svg xmlns="http://www.w3.org/2000/svg" height="64" width="64" data-name="Layer 3"><rect id="backgroundrect" width="100%" height="100%" x="0" y="0" fill="none" stroke="none" class="" style=""/><g class="currentLayer" style=""><title>Layer 1</title><path d="m62 13h-60v-7a4 4 0 0 1 4-4h52a4 4 0 0 1 4 4z" fill="#365e7d" id="svg_1" class="" fill-opacity="1"/><path d="m57.105 11a2 2 0 0 0 2-2v-6.826a3.958 3.958 0 0 0 -1.105-.174h-52a4 4 0 0 0 -4 4v5z" fill="#2b4d66" id="svg_2" class="" fill-opacity="1"/><path d="m62 13v45a4 4 0 0 1 -4 4h-52a4 4 0 0 1 -4-4v-45z" fill="#d9f1f4" id="svg_3" class=""/><path d="m59 13h-57v45h57z" fill="#fbfdff" id="svg_4" class="" fill-opacity="1"/><path d="m8 19h12v12h-12z" fill="#d9f1f4" id="svg_5" class="" fill-opacity="1"/><path d="m8 37h12v12h-12z" fill="#d9f1f4" id="svg_6" class="" fill-opacity="1"/><g fill="#98d7f9" id="svg_7" class="" fill-opacity="1"><rect height="4" rx="2" width="24" x="6" y="5" id="svg_8" fill="#98d7f9"/><circle cx="57" cy="7" r="2" id="svg_9" fill="#98d7f9"/><circle cx="51" cy="7" r="2" id="svg_10" fill="#98d7f9"/></g><path d="m11 24 4 4 10-10-2-2-8 8-2-2.001z" fill="#ff623c" id="svg_11" class="" fill-opacity="1"/><path d="m11 42 4 4 10-10-2-2-8 8-2-2.001z" fill="#ff623c" id="svg_12" class="" fill-opacity="1"/><g fill="#9da1bf" id="svg_13"><path d="m27 28h30v2h-30z" id="svg_14"/><path d="m31 24h26v2h-26z" id="svg_15"/><path d="m27 24h2v2h-2z" id="svg_16"/><path d="m27 46h30v2h-30z" id="svg_17"/><path d="m31 42h26v2h-26z" id="svg_18"/><path d="m27 42h2v2h-2z" id="svg_19"/></g></g></svg>