<svg xmlns="http://www.w3.org/2000/svg" enable-background="new 0 0 512 512" height="512" width="512"><rect id="backgroundrect" width="100%" height="100%" x="0" y="0" fill="none" stroke="none"/><g class="currentLayer" style=""><title>Layer 1</title><path d="m357.54 0c-11.229 0-327.965 0-339.16 0-9.103 0-16.483 7.38-16.483 16.483v433.806c0 9.095 7.371 16.483 16.483 16.483h27.238 311.922c9.104 0 16.483-7.38 16.483-16.483 0-5.095 0-428.787 0-433.806 0-9.103-7.377-16.483-16.483-16.483z" fill="#98d7f9" id="svg_2" class="" fill-opacity="1"/><path d="m357.54 0c-16.858 0-12.07 0-29.202 0 9.082 0 16.483 7.355 16.483 16.483v433.806c0 9.103-7.379 16.483-16.483 16.483h29.202c9.104 0 16.483-7.38 16.483-16.483 0-5.095 0-428.787 0-433.806 0-9.115-7.391-16.483-16.483-16.483z" fill="#7bccf7" id="svg_3" class="" fill-opacity="1"/><path d="m41.66 45.228c-9.103 0-16.483 7.38-16.483 16.483v405.06h20.442 311.921c9.104 0 16.483-7.38 16.483-16.483v-405.06z" fill="#80b4fb" id="svg_4" class=""/><path d="m41.66,45.228 c-9.103,0 -16.483,7.38 -16.483,16.483 v405.06 h20.442 h311.921 c9.104,0 16.483,-7.38 16.483,-16.483 v-405.06 z" fill="#7bccf7" class="" id="svg_1" fill-opacity="1"/><path d="m496.906 414.883 13.197-30.419h-58.887l13.196 30.419z" fill="#98d7f9" id="svg_5" class="" fill-opacity="1"/><path d="m486.741 384.464-13.196 30.419h23.361l13.197-30.419z" fill="#7bccf7" id="svg_6" class="" fill-opacity="1"/><path d="m62.101 512h339.16c9.103 0 16.483-7.38 16.483-16.483v-433.806c0-9.103-7.38-16.483-16.483-16.483h-339.16c-9.103 0-16.483 7.38-16.483 16.483v433.806c.001 9.103 7.38 16.483 16.483 16.483z" fill="#fbfdff" id="svg_7" class="" fill-opacity="1"/><circle cx="129.06100463867188" cy="131.48899841308594" fill="#ff623c" r="23.076000213623047" id="svg_8" class="" fill-opacity="1"/><g id="svg_9" class=""><path d="m357.378 123.095h-172.361c-4.268 0-7.726-3.459-7.726-7.726s3.459-7.726 7.726-7.726h172.361c4.268 0 7.726 3.459 7.726 7.726s-3.458 7.726-7.726 7.726z" fill="#407093" id="svg_10"/></g><g class="" id="svg_35" fill-opacity="1" fill="#2b4d66"><path d="m357.378 123.095h-172.361c-4.268 0-7.726-3.459-7.726-7.726s3.459-7.726 7.726-7.726h172.361c4.268 0 7.726 3.459 7.726 7.726s-3.458 7.726-7.726 7.726z" fill="#2b4d66" id="svg_36"/></g><g id="svg_11" class="" fill-opacity="1" fill="#2b4d66"><path d="m320.049 155.336h-135.032c-4.268 0-7.726-3.459-7.726-7.726 0-4.268 3.459-7.726 7.726-7.726h135.032c4.268 0 7.726 3.459 7.726 7.726.001 4.267-3.458 7.726-7.726 7.726z" fill="#2b4d66" id="svg_12"/></g><circle cx="129.06100463867188" cy="230.7760009765625" fill="#ff623c" r="23.076000213623047" id="svg_13" class="" fill-opacity="1"/><g id="svg_14" class="" fill-opacity="1" fill="#2b4d66"><path d="m357.378 222.381h-172.361c-4.268 0-7.726-3.459-7.726-7.726 0-4.268 3.459-7.726 7.726-7.726h172.361c4.268 0 7.726 3.459 7.726 7.726.001 4.268-3.458 7.726-7.726 7.726z" fill="#2b4d66" id="svg_15"/></g><g id="svg_16" class="" fill-opacity="1" fill="#2b4d66"><path d="m320.049 254.623h-135.032c-4.268 0-7.726-3.459-7.726-7.726s3.459-7.726 7.726-7.726h135.032c4.268 0 7.726 3.459 7.726 7.726s-3.458 7.726-7.726 7.726z" fill="#2b4d66" id="svg_17"/></g><circle cx="129.06100463867188" cy="330.06201171875" fill="#ff623c" r="23.076000213623047" id="svg_18" class="" fill-opacity="1"/><g id="svg_19" class="" fill-opacity="1" fill="#2b4d66"><path d="m357.378 321.668h-172.361c-4.268 0-7.726-3.459-7.726-7.726s3.459-7.726 7.726-7.726h172.361c4.268 0 7.726 3.459 7.726 7.726s-3.458 7.726-7.726 7.726z" fill="#2b4d66" id="svg_20"/></g><g id="svg_21" class="" fill-opacity="1" fill="#2b4d66"><path d="m320.049 353.909h-135.032c-4.268 0-7.726-3.459-7.726-7.726s3.459-7.726 7.726-7.726h135.032c4.268 0 7.726 3.459 7.726 7.726s-3.458 7.726-7.726 7.726z" fill="#2b4d66" id="svg_22"/></g><circle cx="129.06100463867188" cy="429.3489990234375" fill="#e28086" r="23.076000213623047" id="svg_23" class=""/><circle cx="129.06100463867188" cy="429.3489990234375" fill="#ff623c" r="23.076000213623047" class="" id="svg_33" fill-opacity="1"/><g id="svg_24" class="" fill-opacity="1" fill="#2b4d66"><path d="m357.378 420.955h-172.361c-4.268 0-7.726-3.459-7.726-7.726s3.459-7.726 7.726-7.726h172.361c4.268 0 7.726 3.459 7.726 7.726s-3.458 7.726-7.726 7.726z" fill="#2b4d66" id="svg_25"/></g><g id="svg_26" class="" fill-opacity="1" fill="#2b4d66"><path d="m320.049 453.196h-135.032c-4.268 0-7.726-3.459-7.726-7.726s3.459-7.726 7.726-7.726h135.032c4.268 0 7.726 3.459 7.726 7.726s-3.458 7.726-7.726 7.726z" fill="#2b4d66" id="svg_27"/></g><path d="m485.265 441.717 11.641-26.834h-32.494l11.641 26.834c2.074 4.779 7.138 4.779 9.212 0z" fill="#2b4d66" id="svg_28" class="" fill-opacity="1"/><path d="m510.103 181.566h-58.887v202.898h58.887c0-8.708 0-194.228 0-202.898z" fill="#ff623c" id="svg_29" class="" fill-opacity="1"/><path d="m451.216 181.566h58.886v-28.316c0-10.289-6.516-18.63-14.554-18.63h-29.778c-8.038 0-14.555 8.341-14.554 18.63z" fill="#98d7f9" id="svg_30" class="" fill-opacity="1"/><path d="m510.103 181.566h-23.362v202.898h23.362z" fill="#f74f2a" id="svg_31" class="" fill-opacity="1"/><path d="m495.548 134.621h-23.361c8.038 0 14.554 8.341 14.554 18.63v28.316h23.361v-28.316c.001-10.289-6.516-18.63-14.554-18.63z" fill="#7bccf7" id="svg_32" class="" fill-opacity="1"/><path d="m401.261 45.228h-29.202c9.103 0 16.483 7.38 16.483 16.483v433.806c0 9.103-7.38 16.483-16.483 16.483h29.202c9.103 0 16.483-7.38 16.483-16.483v-433.806c0-9.103-7.38-16.483-16.483-16.483z" fill="#d9f1f4" id="svg_34" class="" fill-opacity="1"/></g></svg>