<svg xmlns="http://www.w3.org/2000/svg" xmlns:xlink="http://www.w3.org/1999/xlink" version="1.1" style="enable-background:new 0 0 447.243 447.243;" xml:space="preserve" width="447.243" height="447.243"><rect id="backgroundrect" width="100%" height="100%" x="0" y="0" fill="none" stroke="none"/>
















<g class="currentLayer" style=""><title>Layer 1</title><g id="svg_1" class="selected" fill-opacity="1" fill="#203a4c">
	<g id="svg_2" fill="#203a4c">
		<path d="M420.361,192.229c-1.83-0.297-3.682-0.434-5.535-0.41H99.305l6.88-3.2c6.725-3.183,12.843-7.515,18.08-12.8l88.48-88.48    c11.653-11.124,13.611-29.019,4.64-42.4c-10.441-14.259-30.464-17.355-44.724-6.914c-1.152,0.844-2.247,1.764-3.276,2.754    l-160,160C-3.119,213.269-3.13,233.53,9.36,246.034c0.008,0.008,0.017,0.017,0.025,0.025l160,160    c12.514,12.479,32.775,12.451,45.255-0.063c0.982-0.985,1.899-2.033,2.745-3.137c8.971-13.381,7.013-31.276-4.64-42.4    l-88.32-88.64c-4.695-4.7-10.093-8.641-16-11.68l-9.6-4.32h314.24c16.347,0.607,30.689-10.812,33.76-26.88    C449.654,211.494,437.806,195.059,420.361,192.229z" id="svg_3" fill="#203a4c"/>
	</g>
</g><g id="svg_4">
</g><g id="svg_5">
</g><g id="svg_6">
</g><g id="svg_7">
</g><g id="svg_8">
</g><g id="svg_9">
</g><g id="svg_10">
</g><g id="svg_11">
</g><g id="svg_12">
</g><g id="svg_13">
</g><g id="svg_14">
</g><g id="svg_15">
</g><g id="svg_16">
</g><g id="svg_17">
</g><g id="svg_18">
</g></g></svg>