<svg xmlns="http://www.w3.org/2000/svg" xmlns:xlink="http://www.w3.org/1999/xlink" version="1.1" style="" xml:space="preserve" width="512" height="512"><rect id="backgroundrect" width="100%" height="100%" x="0" y="0" fill="none" stroke="none" class="" style=""/>

















<g class="currentLayer" style=""><title>Layer 1</title><path fill="#ff623c" fill-opacity="1" stroke="#203a4c" stroke-opacity="1" stroke-width="18" stroke-dasharray="none" stroke-linejoin="miter" stroke-linecap="butt" stroke-dashoffset="" fill-rule="nonzero" opacity="1" marker-start="" marker-mid="" marker-end="" id="svg_23" d="M359.813896730494,193.98259276885585 C359.813896730494,193.98259276885585 429.13968886759176,231.37484923531613 429.13968886759176,231.37484923531613 C429.66788537911253,222.9237050509842 431.1204257857946,500.3365800148184 431.1204257857946,500.3365800148184 C534.8390154233101,501.6570712936203 382.26224847012566,500.33515388423734 363.8721995513916,499.19527412058494 " style="color: rgb(30, 172, 255);" class=""/>
	
	
	
<path style="" d="M363.65210692540575,194.7308719949406 v67.60915347465541 v50.706865105991554 v50.706865105991554 v50.706865105991554 v50.706865105991554 v33.80457673732771 h67.60915347465541 V228.5354487322683 L363.65210692540575,194.7308719949406 z" id="svg_3" fill="#ff623c" class="" stroke-width="18" stroke-opacity="1" stroke="#203a4c" fill-opacity="1"/><path fill="none" fill-opacity="1" stroke="#203a4c" stroke-opacity="1" stroke-width="18" stroke-dasharray="none" stroke-linejoin="miter" stroke-linecap="butt" stroke-dashoffset="" fill-rule="nonzero" opacity="1" marker-start="" marker-mid="" marker-end="" id="svg_4" d="M241.62993784165744,109.47116148946681 C241.62993784165744,109.47116148946681 361.13438800929583,144.94435326240946 361.13438800929583,144.94435326240946 C361.7946336486968,140.3459800724122 361.7946336486968,499.6763449393477 361.7946336486968,499.6763449393477 C326.5815364019572,499.6774541520218 -36.953705817822936,500.3188114841708 62.70336956400496,499.6796831413005 " style="color: rgb(30, 172, 255);" class=""/><path fill="none" fill-opacity="1" stroke="#203a4c" stroke-opacity="1" stroke-width="18" stroke-dasharray="none" stroke-linejoin="miter" stroke-linecap="butt" stroke-dashoffset="" fill-rule="nonzero" opacity="1" marker-start="" marker-mid="" marker-end="" id="svg_21" d="M76.17944787710812,499.2009575150488 C76.17944787710812,499.2009575150488 72.39748690710793,4.5284341807810735 74.55256036590328,11.53471793570847 L244.62637552365413,11.006521424187723 C244.7015801429645,2.0271807283350527 243.3481822214949,491.0150630548723 244.62637552365413,499.58829458087723 L76.17944787710812,499.2009575150488 z" style="color: rgb(30, 172, 255);" class=""/><path fill="none" fill-opacity="1" stroke="#203a4c" stroke-opacity="1" stroke-width="18" stroke-dasharray="none" stroke-linejoin="miter" stroke-linecap="butt" stroke-dashoffset="" fill-rule="nonzero" opacity="1" marker-start="" marker-mid="" marker-end="" id="svg_27" d="M81.59149495565725,61.85745741066168 C81.59149495565725,61.85745741066168 156.4993629018784,61.85745741066168 155.93595681089968,61.72939088447838 C132.170314663326,61.85745741066168 81.59149495565725,61.85745741066168 81.59149495565725,61.85745741066168 z" style="color: rgb(30, 172, 255);" class=""/><path fill="none" fill-opacity="1" stroke="#203a4c" stroke-opacity="1" stroke-width="18" stroke-dasharray="none" stroke-linejoin="miter" stroke-linecap="butt" stroke-dashoffset="" fill-rule="nonzero" opacity="1" marker-start="" marker-mid="" marker-end="" d="M251.42872928966554,163.85401891680036 C251.42872928966554,163.85401891680036 307.98567750285906,163.85401891680036 307.5602945626669,163.725952390617 C289.61675633303,163.85401891680036 251.42872928966554,163.85401891680036 251.42872928966554,163.85401891680036 z" style="color: rgb(30, 172, 255);" class="" id="svg_33"/><path fill="none" fill-opacity="1" stroke="#203a4c" stroke-opacity="1" stroke-width="18" stroke-dasharray="none" stroke-linejoin="miter" stroke-linecap="butt" stroke-dashoffset="" fill-rule="nonzero" opacity="1" marker-start="" marker-mid="" marker-end="" d="M252.07146379108286,215.58084861024932 C252.07146379108286,215.58084861024932 308.6284120042764,215.58084861024932 308.20302906408426,215.45278208406597 C290.2594908344474,215.58084861024932 252.07146379108286,215.58084861024932 252.07146379108286,215.58084861024932 z" style="color: rgb(30, 172, 255);" class="" id="svg_34"/><path fill="none" fill-opacity="1" stroke="#203a4c" stroke-opacity="1" stroke-width="18" stroke-dasharray="none" stroke-linejoin="miter" stroke-linecap="butt" stroke-dashoffset="" fill-rule="nonzero" opacity="1" marker-start="" marker-mid="" marker-end="" d="M252.07146353921914,265.8505842008949 C252.07146353921914,265.8505842008949 308.6284117524126,265.8505842008949 308.20302881222057,265.72251767471147 C290.25949058258357,265.8505842008949 252.07146353921914,265.8505842008949 252.07146353921914,265.8505842008949 z" style="color: rgb(30, 172, 255);" class="" id="svg_35"/><path fill="none" fill-opacity="1" stroke="#203a4c" stroke-opacity="1" stroke-width="18" stroke-dasharray="none" stroke-linejoin="miter" stroke-linecap="butt" stroke-dashoffset="" fill-rule="nonzero" opacity="1" marker-start="" marker-mid="" marker-end="" d="M252.46667709161923,316.12031928781295 C252.46667709161923,316.12031928781295 309.02362530481275,316.12031928781295 308.59824236462066,315.9922527616296 C290.65470413498366,316.12031928781295 252.46667709161923,316.12031928781295 252.46667709161923,316.12031928781295 z" style="color: rgb(30, 172, 255);" class="" id="svg_36"/><path fill="none" fill-opacity="1" stroke="#203a4c" stroke-opacity="1" stroke-width="18" stroke-dasharray="none" stroke-linejoin="miter" stroke-linecap="butt" stroke-dashoffset="" fill-rule="nonzero" opacity="1" marker-start="" marker-mid="" marker-end="" d="M252.46667709161923,366.95923352168467 C252.46667709161923,366.95923352168467 309.02362530481275,366.95923352168467 308.59824236462066,366.83116699550135 C290.65470413498366,366.95923352168467 252.46667709161923,366.95923352168467 252.46667709161923,366.95923352168467 z" style="color: rgb(30, 172, 255);" class="" id="svg_37"/><path fill="none" fill-opacity="1" stroke="#203a4c" stroke-opacity="1" stroke-width="18" stroke-dasharray="none" stroke-linejoin="miter" stroke-linecap="butt" stroke-dashoffset="" fill-rule="nonzero" opacity="1" marker-start="" marker-mid="" marker-end="" d="M252.46667709161923,418.45839339495734 C252.46667709161923,418.45839339495734 309.02362530481275,418.45839339495734 308.59824236462066,418.33032686877397 C290.65470413498366,418.45839339495734 252.46667709161923,418.45839339495734 252.46667709161923,418.45839339495734 z" style="color: rgb(30, 172, 255);" class="" id="svg_38"/><path fill="none" fill-opacity="1" stroke="#203a4c" stroke-opacity="1" stroke-width="18" stroke-dasharray="none" stroke-linejoin="miter" stroke-linecap="butt" stroke-dashoffset="" fill-rule="nonzero" opacity="1" marker-start="" marker-mid="" marker-end="" d="M252.46667709161923,467.97681635002726 C252.46667709161923,467.97681635002726 309.02362530481275,467.97681635002726 308.59824236462066,467.84874982384383 C290.65470413498366,467.97681635002726 252.46667709161923,467.97681635002726 252.46667709161923,467.97681635002726 z" style="color: rgb(30, 172, 255);" class="" id="svg_39"/><path fill="none" fill-opacity="1" stroke="#203a4c" stroke-opacity="1" stroke-width="18" stroke-dasharray="none" stroke-linejoin="miter" stroke-linecap="butt" stroke-dashoffset="" fill-rule="nonzero" opacity="1" marker-start="" marker-mid="" marker-end="" d="M369.66349105448955,265.2814050539412 C369.66349105448955,265.2814050539412 392.95938552736345,265.2814050539412 392.78416963615376,265.15333852775774 C385.3931984774574,265.2814050539412 369.66349105448955,265.2814050539412 369.66349105448955,265.2814050539412 z" style="color: rgb(30, 172, 255);" class="" id="svg_40"/><path fill="none" fill-opacity="1" stroke="#203a4c" stroke-opacity="1" stroke-width="18" stroke-dasharray="none" stroke-linejoin="miter" stroke-linecap="butt" stroke-dashoffset="" fill-rule="nonzero" opacity="1" marker-start="" marker-mid="" marker-end="" d="M370.66349105448955,316.78056492721385 C370.66349105448955,316.78056492721385 393.95938552736345,316.78056492721385 393.78416963615376,316.65249840103047 C386.3931984774574,316.78056492721385 370.66349105448955,316.78056492721385 370.66349105448955,316.78056492721385 z" style="color: rgb(30, 172, 255);" class="" id="svg_41"/><path fill="none" fill-opacity="1" stroke="#203a4c" stroke-opacity="1" stroke-width="18" stroke-dasharray="none" stroke-linejoin="miter" stroke-linecap="butt" stroke-dashoffset="" fill-rule="nonzero" opacity="1" marker-start="" marker-mid="" marker-end="" d="M370.66349105448955,367.6194791610856 C370.66349105448955,367.6194791610856 393.95938552736345,367.6194791610856 393.78416963615376,367.4914126349022 C386.3931984774574,367.6194791610856 370.66349105448955,367.6194791610856 370.66349105448955,367.6194791610856 z" style="color: rgb(30, 172, 255);" class="" id="svg_42"/><path fill="none" fill-opacity="1" stroke="#203a4c" stroke-opacity="1" stroke-width="18" stroke-dasharray="none" stroke-linejoin="miter" stroke-linecap="butt" stroke-dashoffset="" fill-rule="nonzero" opacity="1" marker-start="" marker-mid="" marker-end="" d="M370.66349105448955,418.45839339495734 C370.66349105448955,418.45839339495734 393.95938552736345,418.45839339495734 393.78416963615376,418.3303268687739 C386.3931984774574,418.45839339495734 370.66349105448955,418.45839339495734 370.66349105448955,418.45839339495734 z" style="color: rgb(30, 172, 255);" class="" id="svg_43"/><path fill="none" fill-opacity="1" stroke="#203a4c" stroke-opacity="1" stroke-width="18" stroke-dasharray="none" stroke-linejoin="miter" stroke-linecap="butt" stroke-dashoffset="" fill-rule="nonzero" opacity="1" marker-start="" marker-mid="" marker-end="" d="M370.66349105448955,468.6370619894282 C370.66349105448955,468.6370619894282 393.95938552736345,468.6370619894282 393.78416963615376,468.50899546324473 C386.3931984774574,468.6370619894282 370.66349105448955,468.6370619894282 370.66349105448955,468.6370619894282 z" style="color: rgb(30, 172, 255);" class="" id="svg_44"/><path fill="none" fill-opacity="1" stroke="#203a4c" stroke-opacity="1" stroke-width="18" stroke-dasharray="none" stroke-linejoin="miter" stroke-linecap="butt" stroke-dashoffset="" fill-rule="nonzero" opacity="1" marker-start="" marker-mid="" marker-end="" d="M82.07077067035335,111.42667007083112 C82.07077067035335,111.42667007083112 156.9786386165745,111.42667007083112 156.41523252559577,111.29860354464782 C132.64959037802205,111.42667007083112 82.07077067035335,111.42667007083112 82.07077067035335,111.42667007083112 z" style="color: rgb(30, 172, 255);" class="" id="svg_29"/><path fill="none" fill-opacity="1" stroke="#203a4c" stroke-opacity="1" stroke-width="18" stroke-dasharray="none" stroke-linejoin="miter" stroke-linecap="butt" stroke-dashoffset="" fill-rule="nonzero" opacity="1" marker-start="" marker-mid="" marker-end="" d="M83.07076991476218,162.62110134729383 C83.07076991476218,162.62110134729383 157.9786378609833,162.62110134729383 157.41523177000457,162.4930348211105 C133.6495896224309,162.62110134729383 83.07076991476218,162.62110134729383 83.07076991476218,162.62110134729383 z" style="color: rgb(30, 172, 255);" class="" id="svg_30"/><path fill="none" fill-opacity="1" stroke="#203a4c" stroke-opacity="1" stroke-width="18" stroke-dasharray="none" stroke-linejoin="miter" stroke-linecap="butt" stroke-dashoffset="" fill-rule="nonzero" opacity="1" marker-start="" marker-mid="" marker-end="" d="M82.82920513050732,265.4975264186663 C82.82920513050732,265.4975264186663 157.73707307672845,265.4975264186663 157.17366698574972,265.369459892483 C133.40802483817603,265.4975264186663 82.82920513050732,265.4975264186663 82.82920513050732,265.4975264186663 z" style="color: rgb(30, 172, 255);" class="" id="svg_31"/><path fill="none" fill-opacity="1" stroke="#203a4c" stroke-opacity="1" stroke-width="18" stroke-dasharray="none" stroke-linejoin="miter" stroke-linecap="butt" stroke-dashoffset="" fill-rule="nonzero" opacity="1" marker-start="" marker-mid="" marker-end="" d="M83.16253850357708,316.06353742990103 C83.16253850357708,316.06353742990103 158.0704064497982,316.06353742990103 157.50700035881948,315.93547090371777 C133.7413582112458,316.06353742990103 83.16253850357708,316.06353742990103 83.16253850357708,316.06353742990103 z" style="color: rgb(30, 172, 255);" class="" id="svg_22"/><path fill="none" fill-opacity="1" stroke="#203a4c" stroke-opacity="1" stroke-width="18" stroke-dasharray="none" stroke-linejoin="miter" stroke-linecap="butt" stroke-dashoffset="" fill-rule="nonzero" opacity="1" marker-start="" marker-mid="" marker-end="" d="M83.31742400958476,367.6155166520893 C83.31742400958476,367.6155166520893 158.22529195580591,367.6155166520893 157.66188586482716,367.487450125906 C133.89624371725347,367.6155166520893 83.31742400958476,367.6155166520893 83.31742400958476,367.6155166520893 z" style="color: rgb(30, 172, 255);" class="" id="svg_26"/><path fill="none" fill-opacity="1" stroke="#203a4c" stroke-opacity="1" stroke-width="18" stroke-dasharray="none" stroke-linejoin="miter" stroke-linecap="butt" stroke-dashoffset="" fill-rule="nonzero" opacity="1" marker-start="" marker-mid="" marker-end="" d="M83.68835116168229,418.3223857249346 C83.68835116168229,418.3223857249346 158.59621910790347,418.3223857249346 158.03281301692473,418.1943191987512 C134.267170869351,418.3223857249346 83.68835116168229,418.3223857249346 83.68835116168229,418.3223857249346 z" style="color: rgb(30, 172, 255);" class="" id="svg_24"/><path fill="none" fill-opacity="1" stroke="#203a4c" stroke-opacity="1" stroke-width="18" stroke-dasharray="none" stroke-linejoin="miter" stroke-linecap="butt" stroke-dashoffset="" fill-rule="nonzero" opacity="1" marker-start="" marker-mid="" marker-end="" d="M84.6883530506602,468.32498048307355 C84.6883530506602,468.32498048307355 159.59622099688139,468.32498048307355 159.03281490590263,468.1969139568902 C135.2671727583289,468.32498048307355 84.6883530506602,468.32498048307355 84.6883530506602,468.32498048307355 z" style="color: rgb(30, 172, 255);" class="" id="svg_25"/><path fill="none" fill-opacity="1" stroke="#203a4c" stroke-opacity="1" stroke-width="18" stroke-dasharray="none" stroke-linejoin="miter" stroke-linecap="butt" stroke-dashoffset="" fill-rule="nonzero" opacity="1" marker-start="" marker-mid="" marker-end="" d="M82.5124510318734,214.703984427133 C82.5124510318734,214.703984427133 157.42031897809457,214.703984427133 156.8569128871158,214.57591790094963 C133.09127073954215,214.703984427133 82.5124510318734,214.703984427133 82.5124510318734,214.703984427133 z" style="color: rgb(30, 172, 255);" class="" id="svg_32"/></g></svg>