<svg xmlns="http://www.w3.org/2000/svg" enable-background="new 0 0 24 24" height="24" width="24" style=""><rect id="backgroundrect" width="100%" height="100%" x="0" y="0" fill="none" stroke="none" class="" style=""/><g class="currentLayer" style=""><title>Layer 1</title><path d="m18.75 24h-13.5c-1.24 0-2.25-1.009-2.25-2.25v-10.5c0-1.241 1.01-2.25 2.25-2.25h13.5c1.24 0 2.25 1.009 2.25 2.25v10.5c0 1.241-1.01 2.25-2.25 2.25zm-13.5-13.5c-.413 0-.75.336-.75.75v10.5c0 .414.337.75.75.75h13.5c.413 0 .75-.336.75-.75v-10.5c0-.414-.337-.75-.75-.75z" id="svg_1" class="" fill="#ffffff" fill-opacity="1"/><path d="m17.25 10.5c-.414 0-.75-.336-.75-.75v-3.75c0-2.481-2.019-4.5-4.5-4.5s-4.5 2.019-4.5 4.5v3.75c0 .414-.336.75-.75.75s-.75-.336-.75-.75v-3.75c0-3.309 2.691-6 6-6s6 2.691 6 6v3.75c0 .414-.336.75-.75.75z" id="svg_2" class="" fill="#ffffff" fill-opacity="1"/><path d="m12 17c-1.103 0-2-.897-2-2s.897-2 2-2 2 .897 2 2-.897 2-2 2zm0-2.5c-.275 0-.5.224-.5.5s.225.5.5.5.5-.224.5-.5-.225-.5-.5-.5z" id="svg_3" class="" fill="#ffffff" fill-opacity="1"/><path d="m12 20c-.414 0-.75-.336-.75-.75v-2.75c0-.414.336-.75.75-.75s.75.336.75.75v2.75c0 .414-.336.75-.75.75z" id="svg_4" class="" fill="#ffffff" fill-opacity="1"/></g></svg>