<svg xmlns="http://www.w3.org/2000/svg" xmlns:xlink="http://www.w3.org/1999/xlink" version="1.1" style="" xml:space="preserve" width="531" height="531"><rect id="backgroundrect" width="100%" height="100%" x="0" y="0" fill="none" stroke="none" class="" style=""/>
















<g class="currentLayer" style=""><title>Layer 1</title><g id="svg_1" class="" stroke="#203a4c" fill-opacity="1" fill="#203a4c" stroke-opacity="1" stroke-width="19">
	<g id="svg_2" stroke="#203a4c" fill="#203a4c" stroke-width="19">
		<g id="svg_3" stroke="#203a4c" fill="#203a4c" stroke-width="19">
			<path d="M504.659,321.628 l-47.061,-36.8 c0.6190000000000009,-5.675 1.109,-12.309 1.109,-19.328 s-0.512,-13.653 -1.109,-19.328 l47.104,-36.821 c8.747,-6.912 11.157,-19.179 5.568,-29.397 l-48.939,-84.672 c-5.355,-9.749 -17.365,-14.208 -28.309,-10.176 l-55.531,22.293 c-10.624,-7.68 -21.781,-14.165 -33.323,-19.349 l-8.448,-58.901 C334.334,17.948 324.606,9.5 313.107,9.5 h-98.133 c-11.499,0 -21.227,8.448 -22.592,19.435 l-8.469,59.115 c-11.179,5.056 -22.165,11.435 -33.28,19.371 l-55.68,-22.357 c-10.645,-4.16 -22.763,0.23500000000000001 -28.096,10.005 l-49.003,84.8 c-5.781,9.771 -3.4130000000000003,22.443 5.547,29.525 l47.061,36.779 c-0.7470000000000009,7.211 -1.109,13.461 -1.109,19.328 s0.3630000000000003,12.117 1.067,19.328 l-47.104,36.843 C14.59,328.583 12.2,340.849 17.768,351.068 l48.939,84.672 c5.312,9.728 17.301,14.165 28.309,10.176 l55.531,-22.293 c10.624,7.659 21.803,14.144 33.344,19.349 l8.448,58.88 c1.387,11.2 11.115,19.648 22.613,19.648 h98.133 c11.499,0 21.227,-8.448 22.592,-19.435 l8.469,-59.093 c11.179,-5.056 22.165,-11.435 33.28,-19.371 l55.68,22.357 c10.603,4.117 22.763,-0.23500000000000001 28.096,-10.005 l49.195,-85.099 C515.838,340.871 513.448,328.604 504.659,321.628 zM491.752,340.401 l-50.816,85.717 l-61.077,-24.533 c-3.456,-1.387 -7.381,-0.8530000000000006 -10.368,1.365 c-13.227,9.899000000000001 -26.005,17.344 -39.104,22.699 c-3.499,1.429 -5.995,4.6080000000000005 -6.5280000000000005,8.363 l-10.773,66.155 l-99.563,-1.131 l-9.323,-65.003 c-0.555,-3.755 -3.029,-6.933 -6.5280000000000005,-8.363 c-13.632,-5.589 -26.752,-13.205 -39.019,-22.635 c-1.899,-1.472 -4.203,-2.219 -6.507,-2.219 c-1.344,0 -2.688,0.23500000000000001 -3.989,0.768000000000001 l-62.827,23.701 l-48.939,-84.672 c-0.4480000000000005,-0.8320000000000006 -0.3630000000000003,-1.792 0.14900000000000022,-2.197 l51.776,-40.469 c2.944,-2.3040000000000003 4.48,-6.016 4.011,-9.728 c-1.131,-8.939 -1.6430000000000002,-16.171 -1.6430000000000002,-22.72 s0.533,-13.76 1.6430000000000002,-22.72 c0.4690000000000003,-3.733 -1.067,-7.424 -4.011,-9.728 L36.286,190.62 l50.816,-85.717 l61.077,24.533 c3.477,1.408 7.381,0.8750000000000009 10.389,-1.365 c13.205,-9.92 26.005,-17.344 39.104,-22.699 c3.499,-1.451 5.973,-4.6290000000000004 6.507,-8.363 l10.795,-66.176 l99.584,1.1520000000000001 l9.301,65.024 c0.555,3.755 3.029,6.933 6.5280000000000005,8.363 c13.611,5.568 26.731,13.184 39.019,22.635 c3.008,2.3040000000000003 6.955,2.859 10.475,1.429 l62.827,-23.701 l48.939,84.672 c0.4480000000000005,0.8320000000000006 0.3630000000000003,1.771 -0.14900000000000022,2.176 l-51.776,40.469 c-2.944,2.3040000000000003 -4.48,5.995 -4.011,9.728 c0.811,6.485 1.6430000000000002,14.272 1.6430000000000002,22.72 c0,8.469 -0.8320000000000006,16.235 -1.6430000000000002,22.72 c-0.4690000000000003,3.712 1.067,7.424 4.011,9.728 l51.712,40.448 C491.987,338.844 492.094,339.804 491.752,340.401 z" id="svg_4" stroke="#203a4c" fill="#203a4c" stroke-width="19"/>
			<path d="M264.019,158.833 c-58.816,0 -106.667,47.851 -106.667,106.667 s47.851,106.667 106.667,106.667 c58.816,0 106.667,-47.851 106.667,-106.667 S322.835,158.833 264.019,158.833 zM264.019,350.833 c-47.061,0 -85.333,-38.272 -85.333,-85.333 s38.272,-85.333 85.333,-85.333 c47.061,0 85.333,38.272 85.333,85.333 S311.08,350.833 264.019,350.833 z" id="svg_5" stroke="#203a4c" fill="#203a4c" stroke-width="19"/>
		</g>
	</g>
</g><g id="svg_6" class="">
</g><g id="svg_7" class="">
</g><g id="svg_8" class="">
</g><g id="svg_9" class="">
</g><g id="svg_10" class="">
</g><g id="svg_11" class="">
</g><g id="svg_12" class="">
</g><g id="svg_13" class="">
</g><g id="svg_14" class="">
</g><g id="svg_15" class="">
</g><g id="svg_16" class="">
</g><g id="svg_17" class="">
</g><g id="svg_18" class="">
</g><g id="svg_19" class="">
</g><g id="svg_20" class="">
</g></g></svg>