<svg xmlns="http://www.w3.org/2000/svg" enable-background="new 0 0 64 64" height="64" width="64" style=""><rect id="backgroundrect" width="100%" height="100%" x="0" y="0" fill="none" stroke="none"/><g class="currentLayer" style=""><title>Layer 1</title><g id="svg_3" class="" fill-opacity="1" fill="#bdf7fc"><path d="m14.5,38.5 h-8 v-19.5 h8 z" fill="#bdf7fc" id="svg_4"/></g><g class="" fill-opacity="1" fill="#98d7f9" id="svg_2"><path d="m14.5,38.5 h-8 v-19.5 h8 z" fill="#98d7f9" id="svg_58"/></g><g id="svg_5" class="" fill-opacity="1" fill="#d9f1f4"><path d="m10.5,38.5 h-4 v-19.5 h4 z" fill="#d9f1f4" id="svg_6"/></g><g class="" fill-opacity="1" fill="#d9f1f4" id="svg_59"><path d="m10.5,38.5 h-4 v-19.5 h4 z" fill="#d9f1f4" id="svg_60"/></g><g id="svg_7" class="" fill-opacity="1" fill="#98d7f9"><path d="m10.5 11c-1.105 0-2 .895-2 2v2h4v-2c0-1.105-.895-2-2-2z" fill="#98d7f9" id="svg_8"/></g><g id="svg_9" class="" fill-opacity="1" fill="#d9f1f4"><path d="m10.393048129975796,10.893048129975796 c-1.105,0 -2,0.8950000000000001 -2,2 v2 h2 z" fill="#d9f1f4" id="svg_10"/></g><g id="svg_11" class="" fill-opacity="1" fill="#98d7f9"><path d="m6.5 50.5 3.584 5.376c.198.297.634.297.832 0l3.584-5.376z" fill="#98d7f9" id="svg_12"/></g><g id="svg_13" class="" fill-opacity="1" fill="#2b4d66"><path d="m9.5 55 .584.876c.198.297.634.297.832 0l.584-.876z" fill="#2b4d66" id="svg_14"/></g><g id="svg_15" class="" fill-opacity="1" fill="#2b4d66"><path d="m6.5 38.5h8v12h-8z" fill="#2b4d66" id="svg_16"/></g><g id="svg_17" class="" fill-opacity="1" fill="#2b4d66"><path d="m6.5 38.5h4v12h-4z" fill="#2b4d66" id="svg_18"/></g><g id="svg_19" class="" fill-opacity="1" fill="#2b4d66"><path d="m13 15h-5c-.828 0-1.5.672-1.5 1.5v2.5h8v-2.5c0-.828-.672-1.5-1.5-1.5z" fill="#2b4d66" id="svg_20"/></g><g id="svg_21" class="" fill-opacity="1" fill="#2b4d66"><path d="m10.5 15h-2.5c-.828 0-1.5.672-1.5 1.5v2.5h4z" fill="#2b4d66" id="svg_22"/></g><g id="svg_23" class="" fill-opacity="1" fill="#2b4d66"><path d="m6.5 19v-2h-2c-1.105 0-2 .895-2 2v11.5c0 1.105.895 2 2 2s2-.895 2-2-.895-2-2-2v-9.5z" fill="#2b4d66" id="svg_24"/></g><g id="svg_25" class="" fill-opacity="1" fill="#ff623c"><path d="m44.5 57h-24c-2.209 0-4-1.791-4-4v-38c0-2.209 1.791-4 4-4h24c2.209 0 4 1.791 4 4v38c0 2.209-1.791 4-4 4z" fill="#ff623c" id="svg_26"/></g><g class="" fill-opacity="1" fill="#ff623c" id="svg_1"><path d="m44.5 57h-24c-2.209 0-4-1.791-4-4v-38c0-2.209 1.791-4 4-4h24c2.209 0 4 1.791 4 4v38c0 2.209-1.791 4-4 4z" fill="#ff623c" id="svg_48"/></g><g id="svg_27" class="" fill-opacity="1" fill="#f99961"><path d="m50.5 53h-24c-2.209 0-4-1.791-4-4v-38c0-2.209 1.791-4 4-4h20l8 8v34c0 2.209-1.791 4-4 4z" fill="#f99961" id="svg_28"/></g><g id="svg_29" class=""><path d="m54.5 15h-4c-2.209 0-4-1.791-4-4v-4z" fill="#f68820" id="svg_30"/></g><g class="" id="svg_49" fill-opacity="1" fill="#ff623c"><path d="m54.5 15h-4c-2.209 0-4-1.791-4-4v-4z" fill="#ff623c" id="svg_50"/></g><g id="svg_31" class=""><g id="svg_32"><path d="m35.5 20h12c.552 0 1-.448 1-1 0-.552-.448-1-1-1h-12c-.552 0-1 .448-1 1 0 .552.448 1 1 1z" fill="#f68820" id="svg_33"/></g><g id="svg_34"><path d="m29.5 25h18c.552 0 1-.448 1-1 0-.552-.448-1-1-1h-18c-.552 0-1 .448-1 1 0 .552.448 1 1 1z" fill="#f68820" id="svg_35"/></g><g id="svg_36"><path d="m29.5 30h18c.552 0 1-.448 1-1 0-.552-.448-1-1-1h-18c-.552 0-1 .448-1 1 0 .552.448 1 1 1z" fill="#f68820" id="svg_37"/></g><g id="svg_38"><path d="m29.5 35h18c.552 0 1-.448 1-1 0-.552-.448-1-1-1h-18c-.552 0-1 .448-1 1 0 .552.448 1 1 1z" fill="#f68820" id="svg_39"/></g><g id="svg_40"><path d="m29.5 40h18c.552 0 1-.448 1-1 0-.552-.448-1-1-1h-18c-.552 0-1 .448-1 1 0 .552.448 1 1 1z" fill="#f68820" id="svg_41"/></g><g id="svg_42"><path d="m29.5 45h8.5c.552 0 1-.448 1-1 0-.552-.448-1-1-1h-8.5c-.552 0-1 .448-1 1 0 .552.448 1 1 1z" fill="#f68820" id="svg_43"/></g></g><g class="" id="svg_51" fill-opacity="1" fill="#ff623c"><g id="svg_52" fill="#ff623c"><path d="m35.5 20h12c.552 0 1-.448 1-1 0-.552-.448-1-1-1h-12c-.552 0-1 .448-1 1 0 .552.448 1 1 1z" fill="#ff623c" id="svg_33"/></g><g id="svg_53" fill="#ff623c"><path d="m29.5 25h18c.552 0 1-.448 1-1 0-.552-.448-1-1-1h-18c-.552 0-1 .448-1 1 0 .552.448 1 1 1z" fill="#ff623c" id="svg_35"/></g><g id="svg_54" fill="#ff623c"><path d="m29.5 30h18c.552 0 1-.448 1-1 0-.552-.448-1-1-1h-18c-.552 0-1 .448-1 1 0 .552.448 1 1 1z" fill="#ff623c" id="svg_37"/></g><g id="svg_55" fill="#ff623c"><path d="m29.5 35h18c.552 0 1-.448 1-1 0-.552-.448-1-1-1h-18c-.552 0-1 .448-1 1 0 .552.448 1 1 1z" fill="#ff623c" id="svg_39"/></g><g id="svg_56" fill="#ff623c"><path d="m29.5 40h18c.552 0 1-.448 1-1 0-.552-.448-1-1-1h-18c-.552 0-1 .448-1 1 0 .552.448 1 1 1z" fill="#ff623c" id="svg_41"/></g><g id="svg_57" fill="#ff623c"><path d="m29.5 45h8.5c.552 0 1-.448 1-1 0-.552-.448-1-1-1h-8.5c-.552 0-1 .448-1 1 0 .552.448 1 1 1z" fill="#ff623c" id="svg_43"/></g></g><g id="svg_44" class="" fill-opacity="1" fill="#2b4d66"><circle cx="54.5" cy="42" fill="#2b4d66" r="7" id="svg_45"/></g><g id="svg_46" class="" fill-opacity="1" fill="#98d7f9"><path d="m56.5 39-3 3-1-1c-.552-.552-1.448-.552-2 0-.552.552-.552 1.448 0 2l2 2c.552.552 1.448.552 2 0l4-4c.552-.552.552-1.448 0-2-.552-.552-1.448-.552-2 0z" fill="#98d7f9" id="svg_47"/></g></g></svg>